<?xml version="1.0" encoding="UTF-8" standalone="no"?>
<!-- Created with Inkscape (http://www.inkscape.org/) -->

<svg
   width="126.23469mm"
   height="31.852707mm"
   viewBox="0 0 126.23469 31.852707"
   version="1.1"
   id="svg1"
   xmlns="http://www.w3.org/2000/svg"
   xmlns:svg="http://www.w3.org/2000/svg">
  <defs
     id="defs1" />
  <g
     id="g31"
     transform="translate(-38.469046,-143.97505)">
    <path
       id="path27"
       style="fill:#dbda7e;fill-opacity:0.724044;stroke:#000000;stroke-width:2.1;stroke-miterlimit:0.3"
       d="m 51.468895,146.66666 h 99.951095 c 4.81488,0 7.3723,4.06037 8.69112,8.69111 l 3.05556,10.72888 c 1.31882,4.63074 -3.87624,8.69112 -8.69112,8.69112 H 48.413339 c -4.814877,0 -10.009937,-4.06038 -8.691114,-8.69112 l 3.055556,-10.72888 c 1.318822,-4.63074 3.876237,-8.69111 8.691114,-8.69111 z" />
    <path
       id="path28"
       style="fill:#dfdc8b;fill-opacity:0.724044;stroke:#000000;stroke-width:2.1;stroke-miterlimit:0.3"
       d="m 50.98435,145.02504 h 100.9202 c 5.05427,0 7.87105,4.22652 9.12324,9.12324 l 2.44444,9.55908 c 1.25218,4.8967 -4.06897,9.12323 -9.12324,9.12323 H 49.151017 c -5.054272,0 -10.075241,-4.15943 -9.123235,-9.12323 l 1.833333,-9.55908 c 0.952008,-4.96382 4.068963,-9.12324 9.123235,-9.12324 z" />
    <path
       d="m 67.083289,151.41636 c -0.183275,1.07517 -0.621239,2.04901 -1.316255,2.91909 -0.691828,0.87603 -1.608931,1.56616 -2.751075,2.06737 -1.14659,0.50316 -2.445276,0.75547 -3.892708,0.75547 -1.735317,0 -3.0945,-0.34471 -4.073636,-1.03138 -0.689756,-0.49181 -1.194633,-1.14328 -1.515081,-1.95196 -0.30873,-0.8118 -0.377476,-1.59409 -0.208457,-2.34738 0.09768,-0.43536 0.325068,-0.80504 0.681766,-1.10961 0.365397,-0.31183 0.773487,-0.46746 1.224944,-0.46746 0.365836,0 0.647494,0.1197 0.845255,0.35943 0.205938,0.24018 0.348448,0.5973 0.427457,1.07235 0.09971,0.56593 0.235255,1.04083 0.406691,1.42365 0.179834,0.38398 0.476424,0.70348 0.889981,0.95801 0.416051,0.2468 1.004193,0.37039 1.763823,0.37039 1.044493,0 1.938983,-0.25116 2.681287,-0.752 0.748795,-0.50704 1.190932,-1.13397 1.328032,-1.87899 0.108217,-0.58806 0.01984,-1.06136 -0.264151,-1.42117 -0.273914,-0.36674 -0.668393,-0.64507 -1.183448,-0.83557 -0.50652,-0.19021 -1.19595,-0.392 -2.067755,-0.6053 -1.163648,-0.29172 -2.117744,-0.62989 -2.862595,-1.01413 -0.733184,-0.39087 -1.269083,-0.91661 -1.608064,-1.57552 -0.327842,-0.66312 -0.382677,-1.47942 -0.167088,-2.44584 0.203837,-0.91375 0.632319,-1.71987 1.283766,-2.42043 0.647719,-0.69655 1.477343,-1.22739 2.489341,-1.59467 1.010448,-0.37348 2.143764,-0.55978 3.402285,-0.55978 1.005327,0 1.849317,0.12417 2.533024,0.3729 0.69393,0.2419 1.246877,0.56887 1.658849,0.98159 0.414688,0.40673 0.69536,0.83712 0.841378,1.29141 0.146563,0.456 0.18228,0.90243 0.106538,1.33917 -0.06945,0.40046 -0.276817,0.76427 -0.62262,1.0911 -0.337764,0.32007 -0.720288,0.48041 -1.146912,0.48041 -0.388533,0 -0.668246,-0.0955 -0.838941,-0.28618 -0.161427,-0.19804 -0.319137,-0.51726 -0.472911,-0.95674 -0.18612,-0.62619 -0.457742,-1.11061 -0.814821,-1.45492 -0.354646,-0.35079 -0.997755,-0.52581 -1.93009,-0.52581 -0.864667,0 -1.602839,0.18993 -2.215948,0.57067 -0.605909,0.37442 -0.965715,0.82902 -1.078393,1.36469 -0.07007,0.33312 -0.03957,0.62156 0.09184,0.86498 0.131673,0.24389 0.339325,0.45388 0.623065,0.62978 0.284143,0.17615 0.580322,0.31418 0.888418,0.41396 0.308344,0.0999 0.821785,0.24597 1.540972,0.43848 0.905805,0.22367 1.716896,0.47096 2.433217,0.742 0.725568,0.27163 1.32303,0.60226 1.792295,0.99236 0.478452,0.39132 0.816319,0.89008 1.01319,1.49754 0.206956,0.60247 0.235317,1.34765 0.08354,2.23804 z m 3.294931,-1.98868 1.287027,-8.1094 c 0.105712,-0.66608 0.334063,-1.16324 0.684766,-1.49356 0.357201,-0.32942 0.781184,-0.49379 1.272677,-0.49379 0.513834,0 0.895345,0.16437 1.145044,0.49379 0.257853,0.33032 0.338963,0.82748 0.242406,1.49356 l -1.20316,8.29972 c -0.142055,0.97993 -0.156295,1.80641 -0.04144,2.47635 0.124492,0.66536 0.435948,1.18709 0.93498,1.5634 0.501632,0.36921 1.251067,0.55421 2.247218,0.55421 1.375637,0 2.393781,-0.37795 3.051519,-1.1305 0.654824,-0.75625 1.068204,-1.8903 1.241492,-3.39201 l 0.965978,-8.37117 c 0.07771,-0.67346 0.28452,-1.17059 0.620071,-1.49356 0.335481,-0.32942 0.752349,-0.49379 1.251289,-0.49379 0.498941,0 0.883835,0.16437 1.155239,0.49379 0.28037,0.32297 0.38675,0.8201 0.318293,1.49356 l -0.824315,8.1094 c -0.139295,1.37035 -0.389893,2.52512 -0.752639,3.45819 -0.357528,0.93994 -0.943119,1.7712 -1.75821,2.49157 -0.704041,0.61592 -1.496033,1.06724 -2.374897,1.35221 -0.880803,0.2856 -1.889711,0.42864 -3.025264,0.42864 -1.351469,0 -2.493985,-0.15145 -3.425913,-0.45381 -0.92853,-0.31003 -1.65134,-0.78202 -2.168189,-1.4142 -0.51305,-0.63734 -0.834728,-1.44396 -0.966186,-2.41663 -0.129185,-0.97338 -0.08765,-2.12367 0.122211,-3.44597 z m 32.57041,1.71127 c -0.0163,0.5635 -0.17149,1.17815 -0.46656,1.84468 -0.28847,0.66183 -0.73635,1.31887 -1.34482,1.97103 -0.61126,0.64716 -1.384026,1.17643 -2.318206,1.58634 -0.937148,0.4112 -2.018599,0.61729 -3.242118,0.61729 -0.927636,0 -1.765417,-0.0926 -2.512543,-0.27752 -0.746061,-0.18468 -1.416007,-0.46958 -2.009311,-0.85403 -0.58295,-0.39164 -1.106998,-0.90231 -1.57176,-1.53059 -0.411992,-0.56775 -0.749668,-1.19838 -1.013315,-1.89092 -0.261519,-0.69688 -0.439591,-1.43415 -0.534846,-2.21108 -0.08691,-0.77218 -0.09165,-1.58697 -0.01501,-2.44349 0.123344,-1.37847 0.427278,-2.60003 0.909672,-3.66907 0.485811,-1.05984 1.120459,-1.9573 1.903506,-2.69585 0.778901,-0.74149 1.663313,-1.30201 2.654438,-1.68403 0.988005,-0.38082 2.024463,-0.57078 3.111705,-0.57078 1.325543,0 2.493742,0.25944 3.507864,0.78001 1.0185,0.52281 1.79315,1.17395 2.3232,1.95547 0.53369,0.77903 0.79157,1.52146 0.771,2.22659 -0.0113,0.3884 -0.15857,0.73212 -0.4422,1.03079 -0.28431,0.29939 -0.62168,0.44936 -1.01161,0.44936 -0.4358,0 -0.76062,-0.10384 -0.97419,-0.31127 -0.20558,-0.20708 -0.43144,-0.5629 -0.677067,-1.0662 -0.404972,-0.82671 -0.895973,-1.44123 -1.473601,-1.8467 -0.568184,-0.40415 -1.284402,-0.60572 -2.150059,-0.60572 -1.377526,0 -2.511441,0.51953 -3.407459,1.56525 -0.896106,1.05471 -1.421355,2.56898 -1.571751,4.55967 -0.101812,1.34761 -4.65e-4,2.48177 0.306523,3.39648 0.309804,0.91326 0.795628,1.60049 1.457571,2.05798 0.664321,0.45913 1.463829,0.68932 2.396733,0.68932 1.011963,0 1.87881,-0.25893 2.598358,-0.77522 0.724883,-0.52237 1.284318,-1.28168 1.678206,-2.27369 0.167365,-0.4651 0.365626,-0.84074 0.594866,-1.12771 0.22902,-0.29426 0.58399,-0.44114 1.06533,-0.44114 0.41147,0 0.76002,0.14688 1.04615,0.44114 0.28681,0.29495 0.42408,0.66261 0.4113,1.10361 z m 17.76256,0 c 0.0232,0.5635 -0.0888,1.17815 -0.33714,1.84468 -0.24204,0.66183 -0.64382,1.31887 -1.20654,1.97103 -0.56586,0.64716 -1.3015,1.17643 -2.20692,1.58634 -0.9083,0.4112 -1.97529,0.61729 -3.19881,0.61729 -0.92764,0 -1.77191,-0.0926 -2.53202,-0.27752 -0.75901,-0.18468 -1.44895,-0.46958 -2.06922,-0.85403 -0.61043,-0.39164 -1.1703,-0.90231 -1.67915,-1.53059 -0.45182,-0.56775 -0.83373,-1.19838 -1.14596,-1.89092 -0.31041,-0.69688 -0.54021,-1.43415 -0.68997,-2.21108 -0.14108,-0.77218 -0.20298,-1.58697 -0.18643,-2.44349 0.0266,-1.37847 0.24488,-2.60003 0.65227,-3.66907 0.41146,-1.05984 0.98315,-1.9573 1.71438,-2.69585 0.72688,-0.74149 1.57197,-1.30201 2.5363,-1.68403 0.96129,-0.38082 1.98442,-0.57078 3.07166,-0.57078 1.32554,0 2.51194,0.25944 3.56258,0.78001 1.05518,0.52281 1.87552,1.17395 2.46039,1.95547 0.58835,0.77903 0.89831,1.52146 0.9272,2.22659 0.0159,0.3884 -0.1072,0.73212 -0.36987,1.03079 -0.26331,0.29939 -0.59016,0.44936 -0.98009,0.44936 -0.4358,0 -0.76791,-0.10384 -0.99603,-0.31127 -0.22011,-0.20708 -0.47093,-0.5629 -0.75186,-1.0662 -0.46297,-0.82671 -0.99709,-1.44123 -1.60316,-1.8467 -0.59654,-0.40415 -1.3269,-0.60572 -2.19256,-0.60572 -1.37752,0 -2.47499,0.51953 -3.29765,1.56525 -0.82211,1.05471 -1.24113,2.56898 -1.25187,4.55967 -0.007,1.34761 0.17365,2.48177 0.54481,3.39648 0.37387,0.91326 0.90791,1.60049 1.60194,2.05798 0.69654,0.45913 1.5122,0.68932 2.4451,0.68932 1.01196,0 1.86065,-0.25893 2.54397,-0.77522 0.68824,-0.52237 1.1944,-1.28168 1.5187,-2.27369 0.13473,-0.4651 0.30665,-0.84074 0.51575,-1.12771 0.20837,-0.29426 0.55305,-0.44114 1.03439,-0.44114 0.41146,0 0.77031,0.14688 1.07709,0.44114 0.3075,0.29495 0.47057,0.66261 0.48872,1.10361 z m 13.56335,-8.99411 -7.56005,0 0.27593,4.10248 h 7.07807 c 0.52089,0 0.91964,0.1198 1.19665,0.35973 0.28443,0.23263 0.44668,0.54348 0.48643,0.93315 0.0399,0.39089 -0.0547,0.71232 -0.28431,0.96378 -0.23081,0.24408 -0.61345,0.3663 -1.14758,0.3663 l -7.15284,0 0.33855,5.03349 8.19652,0 c 0.55275,0 0.98128,0.13552 1.28607,0.40697 0.31248,0.26378 0.49259,0.61909 0.53995,1.0667 0.0458,0.4325 -0.0601,0.78707 -0.31816,1.06305 -0.25147,0.26818 -0.65695,0.40248 -1.21605,0.40248 h -9.66843 c -0.77475,0 -1.34409,-0.18043 -1.70726,-0.54054 -0.35422,-0.35912 -0.55231,-0.93745 -0.59484,-1.73203 l -0.69308,-12.95119 c -0.0254,-0.4752 0.0251,-0.85994 0.15142,-1.15506 0.12556,-0.30176 0.33389,-0.51842 0.62498,-0.65042 0.2978,-0.13919 0.68142,-0.20872 1.15111,-0.20872 h 8.76746 c 0.52932,0 0.93268,0.11713 1.21046,0.35173 0.28503,0.2277 0.44741,0.52952 0.48683,0.906 0.0403,0.38507 -0.0586,0.69697 -0.29705,0.93515 -0.23219,0.23119 -0.61589,0.34695 -1.15078,0.34695 z m 18.6692,9.27152 c 0.18093,1.07517 0.0729,2.04901 -0.32744,2.91909 -0.39508,0.87603 -1.0784,1.56616 -2.05076,2.06737 -0.97615,0.50316 -2.18937,0.75547 -3.6368,0.75547 -1.73532,0 -3.21127,-0.34471 -4.42301,-1.03138 -0.85636,-0.49181 -1.58191,-1.14328 -2.17629,-1.95196 -0.58372,-0.8118 -0.91747,-1.59409 -1.00362,-2.34738 -0.0498,-0.43536 0.0524,-0.80504 0.30589,-1.10961 0.25977,-0.31183 0.61514,-0.46746 1.0666,-0.46746 0.36584,0 0.68804,0.1197 0.96701,0.35943 0.2873,0.24018 0.55078,0.5973 0.79071,1.07235 0.29141,0.56593 0.58782,1.04083 0.88894,1.42365 0.30991,0.38398 0.71472,0.70348 1.2145,0.95801 0.49966,0.2468 1.12966,0.37039 1.88929,0.37039 1.0445,0 1.85391,-0.25116 2.42655,-0.752 0.57704,-0.50704 0.80681,-1.13397 0.69154,-1.87899 -0.091,-0.58806 -0.33969,-1.06136 -0.74557,-1.42117 -0.39814,-0.36674 -0.8869,-0.64507 -1.46649,-0.83557 -0.57095,-0.19021 -1.32873,-0.392 -2.27279,-0.6053 -1.26247,-0.29172 -2.33111,-0.62989 -3.20613,-1.01413 -0.86558,-0.39087 -1.57957,-0.91661 -2.14176,-1.57552 -0.55246,-0.66312 -0.88381,-1.47942 -0.99559,-2.44584 -0.10569,-0.91375 0.0497,-1.71987 0.46386,-2.42043 0.41177,-0.69655 1.06158,-1.22739 1.94916,-1.59467 0.88393,-0.37348 1.95414,-0.55978 3.21267,-0.55978 1.00532,0 1.89137,0.12417 2.65933,0.3729 0.77587,0.2419 1.43958,0.56887 1.99136,0.98159 0.55246,0.40673 0.97893,0.83712 1.27884,1.29141 0.30102,0.456 0.48796,0.90243 0.56017,1.33917 0.0662,0.40046 -0.0179,0.76427 -0.25302,1.0911 -0.22935,0.32007 -0.55755,0.48041 -0.98418,0.48041 -0.38853,0 -0.70058,-0.0955 -0.93588,-0.28618 -0.22852,-0.19804 -0.49436,-0.51726 -0.797,-0.95674 -0.39824,-0.62619 -0.83396,-1.11061 -1.30767,-1.45492 -0.47347,-0.35079 -1.17586,-0.52581 -2.1082,-0.52581 -0.86466,0 -1.5385,0.18993 -2.02264,0.57067 -0.47908,0.37442 -0.68489,0.82902 -0.61612,1.36469 0.0428,0.33312 0.17098,0.62156 0.38485,0.86498 0.21429,0.24389 0.49308,0.45388 0.83639,0.62978 0.34382,0.17615 0.68676,0.31418 1.02866,0.41396 0.34217,0.0999 0.9051,0.24597 1.68949,0.43848 0.98158,0.22367 1.87644,0.47096 2.68457,0.742 0.81758,0.27163 1.52704,0.60226 2.12845,0.99236 0.61101,0.39132 1.11783,0.89008 1.52047,1.49754 0.41104,0.60247 0.69183,1.34765 0.84166,2.23804 z"
       id="path31"
       style="font-size:24.0834px;font-family:'Arial Rounded MT Bold';-inkscape-font-specification:'Arial Rounded MT Bold, ';fill:#aca723;fill-opacity:0.724044;stroke:#fdfde8;stroke-width:1.486;stroke-miterlimit:0.3"
       transform="matrix(1.0636955,0,0,1.0066079,-7.3235686,9.9354315)"
       aria-label="SUCCES" />
  </g>
</svg>
