<?xml version="1.0" encoding="UTF-8" standalone="no"?>
<!-- Uploaded to: SVG Repo, www.svgrepo.com, Generator: SVG Repo Mixer Tools -->

<svg
   width="800px"
   height="800px"
   viewBox="0 0 24 24"
   id="_24x24_On_Light_Achievements"
   data-name="24x24/On Light/Achievements"
   version="1.1"
   sodipodi:docname="achievement.svg"
   inkscape:version="1.4 (86a8ad7, 2024-10-11)"
   xmlns:inkscape="http://www.inkscape.org/namespaces/inkscape"
   xmlns:sodipodi="http://sodipodi.sourceforge.net/DTD/sodipodi-0.dtd"
   xmlns="http://www.w3.org/2000/svg"
   xmlns:svg="http://www.w3.org/2000/svg">
  <defs
     id="defs1" />
  <sodipodi:namedview
     id="namedview1"
     pagecolor="#ffffff"
     bordercolor="#000000"
     borderopacity="0.25"
     inkscape:showpageshadow="2"
     inkscape:pageopacity="0.0"
     inkscape:pagecheckerboard="0"
     inkscape:deskcolor="#d1d1d1"
     inkscape:zoom="1.00875"
     inkscape:cx="399.50434"
     inkscape:cy="400"
     inkscape:window-width="1920"
     inkscape:window-height="1009"
     inkscape:window-x="-8"
     inkscape:window-y="-8"
     inkscape:window-maximized="1"
     inkscape:current-layer="_24x24_On_Light_Achievements" />
  <rect
     id="view-box"
     width="24"
     height="24"
     fill="none" />
  <path
     id="Shape"
     d="M6.75,18a.75.75,0,0,1,0-1.5H9s0-.007,0-.011V13.456A6.278,6.278,0,0,1,3.871,9.418,4.748,4.748,0,0,1,0,4.75v-2A.751.751,0,0,1,.75,2H3.087L3,.8A.75.75,0,0,1,3.75,0h12A.75.75,0,0,1,16.5.8L16.412,2H18.75a.75.75,0,0,1,.751.751v2a4.752,4.752,0,0,1-3.871,4.669A6.279,6.279,0,0,1,10.5,13.455v3.034s0,.007,0,.011h2.25a.75.75,0,0,1,0,1.5ZM4.989,7.567a4.774,4.774,0,0,0,9.523,0L14.944,1.5H4.556Zm11.019.106c0,.026,0,.052-.006.077a3.253,3.253,0,0,0,2-3V3.5H16.305ZM1.5,4.75A3.249,3.249,0,0,0,3.454,7.732L3.164,3.5H1.5Z"
     transform="translate(2.25 3.25)"
     fill="#141124"
     style="fill:#f7ff23;fill-opacity:1;stroke:#292949;stroke-opacity:1;stroke-width:0.34299;stroke-dasharray:none" />
  <path
     id="path1"
     d="M6.75,18a.75.75,0,0,1,0-1.5H9s0-.007,0-.011V13.456A6.278,6.278,0,0,1,3.871,9.418,4.748,4.748,0,0,1,0,4.75v-2A.751.751,0,0,1,.75,2H3.087L3,.8A.75.75,0,0,1,3.75,0h12A.75.75,0,0,1,16.5.8L16.412,2H18.75a.75.75,0,0,1,.751.751v2a4.752,4.752,0,0,1-3.871,4.669A6.279,6.279,0,0,1,10.5,13.455v3.034s0,.007,0,.011h2.25a.75.75,0,0,1,0,1.5ZM4.989,7.567a4.774,4.774,0,0,0,9.523,0L14.944,1.5H4.556Zm11.019.106c0,.026,0,.052-.006.077a3.253,3.253,0,0,0,2-3V3.5H16.305ZM1.5,4.75A3.249,3.249,0,0,0,3.454,7.732L3.164,3.5H1.5Z"
     transform="translate(2.25 3.25)"
     fill="#141124"
     style="fill:#f7ff23;fill-opacity:1;stroke:#292949;stroke-opacity:1;stroke-width:0.34299;stroke-dasharray:none" />
</svg>
