<?xml version="1.0" encoding="UTF-8" standalone="no"?>
<!-- Created with Inkscape (http://www.inkscape.org/) -->

<svg
   width="99.129135mm"
   height="43.930668mm"
   viewBox="0 0 99.129135 43.930668"
   version="1.1"
   id="svg1"
   xml:space="preserve"
   xmlns="http://www.w3.org/2000/svg"
   xmlns:svg="http://www.w3.org/2000/svg"><defs
     id="defs1" /><g
     id="g82"
     transform="translate(-38.46905,-134.03611)"><path
       id="path73"
       style="fill:none;fill-opacity:0.724044;stroke:#313131;stroke-width:2.17506;stroke-miterlimit:0.3;stroke-opacity:0.462963"
       d="m 50.891551,146.70419 73.703179,0.17899 c 4.6435,0.0113 7.20248,3.89054 8.3818,8.3818 l 3.36111,12.80023 c 1.17933,4.49127 -3.73835,8.35666 -8.3818,8.3818 l -79.814289,0.43212 c -4.643447,0.0251 -9.314545,-3.83293 -8.381797,-8.3818 l 2.75,-13.41134 c 0.932748,-4.54887 3.738296,-8.39308 8.381797,-8.3818 z" /><path
       id="path74"
       style="fill:#6fc982;fill-opacity:0.724044;stroke:#000000;stroke-width:2.1;stroke-miterlimit:0.3"
       d="m 51.468895,146.66666 h 73.107175 c 4.81488,0 7.3723,4.06037 8.69112,8.69111 l 3.05556,10.72888 c 1.31883,4.63074 -3.87624,8.69112 -8.69112,8.69112 H 48.413339 c -4.814877,0 -10.009937,-4.06038 -8.691114,-8.69112 l 3.055556,-10.72888 c 1.318822,-4.63074 3.876237,-8.69111 8.691114,-8.69111 z" /><path
       id="path75"
       style="fill:#6fc982;fill-opacity:0.724044;stroke:#000000;stroke-width:2.1;stroke-miterlimit:0.3"
       d="m 50.98435,135.51838 73.69659,-0.43212 c 5.05418,-0.0296 7.87105,4.22652 9.12324,9.12324 l 2.44444,9.55908 c 1.25218,4.8967 -4.06905,9.09522 -9.12324,9.12323 l -77.974363,0.43212 c -5.054194,0.028 -10.075241,-4.15943 -9.123235,-9.12323 l 1.833333,-9.55908 c 0.952008,-4.96382 4.06905,-9.0936 9.123235,-9.12324 z" /><path
       style="fill:none;fill-opacity:1;stroke:#000000;stroke-width:1.6;stroke-miterlimit:0.3;stroke-dasharray:none;stroke-opacity:1"
       d="m 39.755114,155.34743 -0.476869,12.5871"
       id="path76" /><path
       style="fill:none;fill-opacity:1;stroke:#000000;stroke-width:1.7;stroke-miterlimit:0.3;stroke-dasharray:none;stroke-opacity:1"
       d="m 136.52378,155.42343 -0.18984,12.55453"
       id="path77" /><g
       id="g3"
       transform="matrix(0.04640962,0,0,0.04364686,48.04265,138.28753)"
       style="fill:#ffffff;fill-opacity:1;stroke:#000000;stroke-width:34.4052;stroke-dasharray:none;stroke-opacity:1">
	<path
   class="st0"
   d="M 186.96211,0 H 127.60504 C 110.56315,0 95.991928,11.935138 95.038368,26.785558 l -4.255944,66.280597 h 92.874966 z"
   id="path1-5"
   style="fill:#ffffff;fill-opacity:1;stroke:#000000;stroke-width:34.4052;stroke-dasharray:none;stroke-opacity:1" />
	<path
   id="rect1-2"
   class="st0"
   d="m 208.7657,0 h 90.20282 l 0.0121,93.066155 h -92.87394 z"
   style="fill:#ffffff;fill-opacity:1;stroke:#000000;stroke-width:34.4052;stroke-dasharray:none;stroke-opacity:1" />
	<path
   class="st0"
   d="M 411.94309,26.785558 C 411.41185,11.935138 397.17008,0 380.13718,0 H 320.7811 l 0.65799,93.066155 h 92.87496 z"
   id="path2"
   style="fill:#ffffff;fill-opacity:1;stroke:#000000;stroke-width:34.4052;stroke-dasharray:none;stroke-opacity:1" />
	<path
   class="st0"
   d="M 505.96942,297.95258 451.37245,153.98597 c -1.91076,-5.07915 -7.29688,-8.58459 -13.18774,-8.58459 h -22.03928 l -1.11385,-31.14689 h -93.46344 l 0.45682,64.66757 -23.06181,8.39865 -0.009,-73.06622 h -93.46345 l -2.31997,81.18919 -22.78984,-11.21348 2.48562,-69.97571 H 89.413622 l -2.256289,35.13727 H 72.939978 c -5.634436,0 -10.81755,3.14142 -13.180814,7.87714 L -1.7032527,283.47285 c -2.043061,4.19853 -1.6874757,8.86959 0.79768824,12.50195 2.55834536,3.56267 6.94930016,5.54559 11.73782646,5.28327 l 51.927632,-3.30549 -12.09035,176.41977 C 49.250069,495.08502 65.05849,512 86.051768,512 H 409.53522 c 20.98168,0 37.27163,-16.91498 36.42758,-37.62765 l -6.719,-164.88288 52.76031,5.52997 c 4.67751,0.45807 9.28625,-1.34541 12.03643,-4.7329 2.8171,-3.39951 3.5889,-8.10915 1.92892,-12.33396 z m -272.85452,-36.87025 -28.33416,1.80556 -3.54267,0.19792 -23.71112,1.49531 -98.162762,6.15671 -14.803448,0.92137 -31.730382,2.01697 47.755941,-99.91224 h 5.004957 16.068544 l 77.72007,38.62329 31.64315,15.78231 17.5967,8.70554 h 0.0709 l 0.47674,0.26154 3.20847,1.59407 4.22857,2.10881 29.55527,14.69489 6.20688,3.09148 z m 102.29443,10.1212 c 0.72554,-3.25618 15.60323,0.47597 27.0963,3.71183 z m 102.7488,11.61841 -17.16083,-1.76959 -51.46751,-5.40261 -44.39296,-20.11335 -2.57869,-1.28948 -23.58722,-11.62129 -11.15647,-5.48702 -21.84472,-10.74492 32.71833,-12.05696 h 0.27943 l -10e-6,-0.12755 23.24761,-8.52587 94.84025,-34.86624 2.93886,-1.10181 h 9.1684 l 43.29068,116.71074 z"
   id="path3"
   style="fill:#ffffff;fill-opacity:1;stroke:#000000;stroke-width:34.4052;stroke-dasharray:none;stroke-opacity:1" />
</g><path
       d="m 95.763172,118.69735 h -3.34464 l -0.468943,2.16057 h 2.851397 c 0.264342,0 0.449286,0.0608 0.555005,0.18246 0.110578,0.11803 0.147418,0.27778 0.110244,0.4796 -0.03731,0.20255 -0.133732,0.36393 -0.289415,0.48376 -0.156018,0.1201 -0.365939,0.18025 -0.629513,0.18025 h -2.885535 l -0.647646,2.98391 c -0.08472,0.39032 -0.233483,0.68266 -0.446397,0.87551 -0.208599,0.1892 -0.445733,0.28403 -0.710891,0.28403 -0.269237,0 -0.467309,-0.097 -0.593898,-0.29046 -0.122104,-0.19284 -0.137864,-0.48302 -0.04803,-0.86908 l 1.567207,-6.73541 c 0.05569,-0.23933 0.136728,-0.433 0.243089,-0.58151 0.106922,-0.1518 0.243387,-0.26075 0.409466,-0.32713 0.170479,-0.07 0.374286,-0.10492 0.611588,-0.10492 h 3.955021 c 0.267435,0 0.454476,0.0589 0.561297,0.17683 0.111496,0.11452 0.150433,0.26635 0.116544,0.4558 -0.03468,0.19387 -0.1293,0.35096 -0.284028,0.47095 -0.150576,0.1165 -0.361296,0.17484 -0.631917,0.17484 z m 5.263558,4.55585 h -3.181142 c -0.05717,0.38153 -0.0375,0.72007 0.05967,1.01484 0.101714,0.29629 0.261709,0.52058 0.480019,0.67199 0.222923,0.15182 0.482016,0.22787 0.776838,0.22787 0.197894,0 0.380936,-0.0232 0.549025,-0.0697 0.17258,-0.0507 0.342474,-0.12655 0.509564,-0.2276 0.16736,-0.10506 0.32321,-0.21622 0.46755,-0.33343 0.14403,-0.11698 0.33131,-0.27535 0.56145,-0.47478 0.0936,-0.0746 0.21826,-0.11186 0.3741,-0.11186 0.16784,0 0.29782,0.0476 0.39006,0.14298 0.0924,0.0955 0.12806,0.23078 0.10682,0.40603 -0.0188,0.15484 -0.0993,0.33742 -0.24194,0.54801 -0.14263,0.20712 -0.34572,0.40862 -0.60954,0.60443 -0.2601,0.19219 -0.5799,0.35284 -0.95936,0.48167 -0.376231,0.12914 -0.799224,0.19381 -1.26835,0.19381 -1.07287,0 -1.854756,-0.32264 -2.341595,-0.96259 -0.481493,-0.63291 -0.626835,-1.48053 -0.442574,-2.53325 0.08558,-0.48892 0.23476,-0.93771 0.446928,-1.34728 0.211295,-0.41052 0.475108,-0.75943 0.791361,-1.04787 0.314608,-0.28694 0.678297,-0.50502 1.091443,-0.65505 0.412612,-0.15345 0.85474,-0.23002 1.327249,-0.23002 0.614648,0 1.123168,0.13023 1.527008,0.39161 0.41012,0.25875 0.7001,0.59658 0.86942,1.01492 0.17062,0.42152 0.22984,0.85422 0.17637,1.29833 -0.05,0.41528 -0.19955,0.68707 -0.44881,0.81327 -0.2493,0.12239 -0.58662,0.18369 -1.01157,0.18369 z m -3.029984,-0.9427 h 2.924244 c 0.036,-0.56011 -0.0566,-0.97456 -0.2766,-1.24653 -0.21455,-0.27456 -0.52902,-0.41134 -0.944204,-0.41134 -0.395778,0 -0.74306,0.13873 -1.042972,0.41723 -0.296894,0.27596 -0.517068,0.6885 -0.660468,1.24064 z m 9.700844,3.0289 c -0.42513,0.32748 -0.83406,0.57538 -1.22581,0.74267 -0.38845,0.16346 -0.81765,0.24537 -1.28678,0.24537 -0.42833,0 -0.79685,-0.0884 -1.10484,-0.2647 -0.30254,-0.18008 -0.52445,-0.42145 -0.66589,-0.72334 -0.14069,-0.30032 -0.19135,-0.62424 -0.15268,-0.97137 0.0518,-0.46511 0.23695,-0.85871 0.55439,-1.18226 0.31563,-0.32169 0.72337,-0.5365 1.22383,-0.64561 0.10494,-0.0242 0.36456,-0.0787 0.77843,-0.16327 0.41324,-0.0845 0.76616,-0.1608 1.05897,-0.229 0.29669,-0.0721 0.61763,-0.15813 0.96265,-0.25799 0.0118,-0.42935 -0.0512,-0.74133 -0.18842,-0.93788 -0.13255,-0.19977 -0.4334,-0.29939 -0.9029,-0.29939 -0.40354,0 -0.71323,0.0566 -0.92941,0.17004 -0.21272,0.11365 -0.40406,0.28457 -0.57421,0.51327 -0.16693,0.22965 -0.28572,0.38261 -0.35592,0.45826 -0.066,0.0717 -0.19905,0.10767 -0.39917,0.10767 -0.18051,0 -0.33135,-0.0579 -0.45233,-0.17337 -0.11638,-0.11925 -0.16456,-0.26993 -0.14477,-0.45179 0.0308,-0.28347 0.15968,-0.55768 0.38581,-0.82276 0.22506,-0.26382 0.55421,-0.48013 0.98725,-0.6495 0.43171,-0.16884 0.95631,-0.25306 1.5748,-0.25306 0.69147,0 1.2291,0.0823 1.61374,0.2473 0.38605,0.16164 0.64942,0.42048 0.78992,0.77789 0.14531,0.35974 0.20069,0.84042 0.16514,1.44516 -0.0227,0.38534 -0.044,0.71457 -0.064,0.98668 -0.0161,0.27341 -0.0361,0.579 -0.06,0.91726 -0.0188,0.31947 0.0116,0.65539 0.0918,1.00803 0.0849,0.35059 0.12471,0.5777 0.11897,0.67988 -0.0101,0.17924 -0.10067,0.34403 -0.27208,0.49426 -0.16753,0.1463 -0.35344,0.21959 -0.5574,0.21959 -0.17134,0 -0.33509,-0.0841 -0.49092,-0.25182 -0.15508,-0.17155 -0.3146,-0.41728 -0.47822,-0.73622 z m 0.0701,-2.45909 c -0.24421,0.0894 -0.59831,0.18512 -1.06265,0.28709 -0.46084,0.0981 -0.78117,0.17173 -0.9605,0.22089 -0.17909,0.0451 -0.35479,0.13744 -0.5273,0.27732 -0.17254,0.13608 -0.271,0.32837 -0.29515,0.57746 -0.0251,0.25854 0.048,0.48048 0.21957,0.66538 0.17256,0.18128 0.41253,0.27214 0.7195,0.27214 0.32717,0 0.63419,-0.074 0.92051,-0.22161 0.28993,-0.15146 0.50791,-0.34442 0.65404,-0.57845 0.16738,-0.25798 0.27218,-0.6799 0.31462,-1.2621 z m 8.45751,1.18206 c 9.7e-4,0.4706 -0.10903,0.87766 -0.33099,1.21981 -0.22329,0.33993 -0.55521,0.60048 -0.99578,0.78056 -0.43782,0.17633 -0.97134,0.2647 -1.59956,0.2647 -0.59967,0 -1.11049,-0.097 -1.53142,-0.29046 -0.41953,-0.19284 -0.72413,-0.43192 -0.91413,-0.71666 -0.18887,-0.28756 -0.27621,-0.57369 -0.26277,-0.85841 0.009,-0.18763 0.0804,-0.34767 0.21454,-0.48035 0.13378,-0.13238 0.29831,-0.19845 0.49382,-0.19845 0.17157,0 0.30157,0.0434 0.39009,0.13015 0.0887,0.0869 0.17219,0.20928 0.25062,0.36727 0.15796,0.30473 0.3515,0.5333 0.58045,0.68478 0.23358,0.15188 0.5546,0.22797 0.9626,0.22797 0.33124,0 0.60315,-0.0761 0.8153,-0.22797 0.21568,-0.15569 0.32447,-0.3319 0.32682,-0.52844 0.004,-0.29979 -0.10368,-0.5174 -0.32137,-0.65376 -0.21319,-0.13603 -0.5673,-0.26557 -1.0619,-0.38867 -0.55649,-0.14328 -1.00824,-0.29232 -1.35561,-0.44706 -0.34229,-0.15838 -0.61248,-0.36482 -0.8106,-0.61878 -0.19722,-0.25283 -0.28696,-0.56228 -0.26995,-0.92742 0.0151,-0.32345 0.12439,-0.62742 0.32726,-0.91223 0.20183,-0.28333 0.48898,-0.50742 0.86139,-0.67296 0.37526,-0.16888 0.82179,-0.25313 1.34045,-0.25313 0.40724,0 0.7715,0.0421 1.09314,0.12642 0.326,0.0844 0.59638,0.19787 0.81119,0.34046 0.21923,0.14298 0.38483,0.30184 0.49663,0.47673 0.11603,0.17545 0.17412,0.34753 0.17399,0.51623 -1.3e-4,0.18497 -0.0627,0.33695 -0.18797,0.45567 -0.12159,0.11897 -0.29604,0.17856 -0.52314,0.17856 -0.16444,0 -0.30493,-0.0477 -0.42131,-0.1429 -0.11226,-0.0951 -0.24129,-0.23733 -0.38685,-0.42646 -0.11832,-0.15713 -0.2582,-0.28251 -0.41967,-0.37636 -0.16121,-0.0937 -0.38129,-0.14048 -0.66046,-0.14048 -0.28692,0 -0.52719,0.0624 -0.72113,0.18738 -0.19424,0.12136 -0.2946,0.27441 -0.30076,0.45941 -0.006,0.16981 0.0601,0.31039 0.19735,0.42152 0.1377,0.10737 0.3252,0.19701 0.56254,0.26882 0.23764,0.0719 0.56562,0.15991 0.9843,0.26409 0.49793,0.12448 0.9041,0.27341 1.21841,0.447 0.31924,0.17411 0.56018,0.38132 0.72261,0.62199 0.1671,0.23759 0.25123,0.51123 0.25187,0.82143 z m 1.41045,-4.36159 h 0.17311 l -0.0155,-0.93559 c -0.004,-0.24831 -0.002,-0.44128 0.007,-0.57948 0.0128,-0.14159 0.0486,-0.26238 0.10734,-0.36253 0.0586,-0.10366 0.14389,-0.18681 0.25584,-0.24956 0.11175,-0.0663 0.23729,-0.0995 0.37673,-0.0995 0.19597,0 0.37505,0.0718 0.53757,0.21581 0.10859,0.0962 0.17833,0.21483 0.20913,0.35605 0.0345,0.13785 0.0558,0.33593 0.0639,0.5949 l 0.0328,1.05989 h 0.57702 c 0.22311,0 0.39451,0.0537 0.51437,0.16136 0.12378,0.10397 0.18929,0.23905 0.19636,0.40545 0.009,0.21358 -0.0699,0.36358 -0.23713,0.44948 -0.16362,0.086 -0.40295,0.1291 -0.7178,0.1291 h -0.29735 l 0.0938,3.02988 c 0.008,0.26518 0.0226,0.47113 0.0432,0.6172 0.0245,0.14225 0.0765,0.25967 0.15596,0.3521 0.0835,0.0884 0.21396,0.13259 0.39137,0.13259 0.0968,0 0.22717,-0.0168 0.39114,-0.0505 0.1637,-0.0379 0.29183,-0.0568 0.38448,-0.0568 0.13293,0 0.2543,0.0568 0.36429,0.17062 0.11405,0.1098 0.17504,0.24734 0.18284,0.41282 0.0132,0.28114 -0.12295,0.49718 -0.40919,0.64738 -0.287,0.1506 -0.70614,0.22604 -1.25685,0.22604 -0.52216,0 -0.92013,-0.0927 -1.19327,-0.27758 -0.27226,-0.18432 -0.45367,-0.4384 -0.54451,-0.76132 -0.0863,-0.32112 -0.13368,-0.74721 -0.14246,-1.27591 l -0.0525,-3.16646 h -0.2099 c -0.22933,0 -0.40485,-0.0548 -0.52638,-0.16425 -0.12128,-0.10924 -0.18253,-0.24742 -0.18392,-0.41433 -0.001,-0.16641 0.0592,-0.30148 0.18154,-0.40545 0.12592,-0.10763 0.30804,-0.16136 0.54654,-0.16136 z m 8.57849,5.63862 c -0.37251,0.32748 -0.7416,0.57538 -1.10649,0.74267 -0.36218,0.16346 -0.77822,0.24537 -1.24735,0.24537 -0.42833,0 -0.81104,-0.0884 -1.14736,-0.2647 -0.33147,-0.18008 -0.59217,-0.42145 -0.78211,-0.72334 -0.18895,-0.30032 -0.29165,-0.62424 -0.30876,-0.97137 -0.0229,-0.46511 0.099,-0.85871 0.36444,-1.18226 0.26394,-0.32169 0.63717,-0.5365 1.12009,-0.64561 0.10105,-0.0242 0.35193,-0.0787 0.75219,-0.16327 0.39967,-0.0845 0.74033,-0.1608 1.02217,-0.229 0.28511,-0.0721 0.59223,-0.15813 0.9212,-0.25799 -0.0572,-0.42935 -0.17028,-0.74133 -0.3391,-0.93788 -0.16466,-0.19977 -0.48152,-0.29939 -0.95102,-0.29939 -0.40353,0 -0.70412,0.0566 -0.90208,0.17004 -0.19446,0.11365 -0.35834,0.28457 -0.49173,0.51327 -0.13004,0.22965 -0.22425,0.38261 -0.28229,0.45826 -0.0544,0.0717 -0.18176,0.10767 -0.38189,0.10767 -0.1805,0 -0.34063,-0.0579 -0.48017,-0.17337 -0.13555,-0.11925 -0.20794,-0.26993 -0.21738,-0.45179 -0.0147,-0.28347 0.0701,-0.55768 0.25363,-0.82276 0.18267,-0.26382 0.47706,-0.48013 0.88289,-0.6495 0.40458,-0.16884 0.91565,-0.25306 1.53413,-0.25306 0.69148,0 1.24233,0.0823 1.65348,0.2473 0.41203,0.16164 0.71698,0.42048 0.91492,0.77789 0.20311,0.35974 0.33572,0.84042 0.39733,1.44516 0.0393,0.38534 0.0708,0.71457 0.0945,0.98668 0.0278,0.27341 0.057,0.579 0.0874,0.91726 0.0325,0.31947 0.11693,0.65539 0.25373,1.00803 0.14126,0.35059 0.21754,0.5777 0.22822,0.67988 0.0187,0.17924 -0.0454,0.34403 -0.19267,0.49426 -0.14402,0.1463 -0.31815,0.21959 -0.52212,0.21959 -0.17133,0 -0.34859,-0.0841 -0.53137,-0.25182 -0.18265,-0.17155 -0.38166,-0.41728 -0.59652,-0.73622 z m -0.32505,-2.45909 c -0.22984,0.0894 -0.56857,0.18512 -1.01652,0.28709 -0.44509,0.0981 -0.75358,0.17173 -0.925,0.22089 -0.17186,0.0451 -0.33272,0.13744 -0.48275,0.27732 -0.15067,0.13608 -0.21823,0.32837 -0.20236,0.57746 0.0165,0.25854 0.12516,0.48048 0.32648,0.66538 0.20168,0.18128 0.45625,0.27214 0.76322,0.27214 0.32717,0 0.6223,-0.074 0.8849,-0.22161 0.2656,-0.15146 0.45257,-0.34442 0.5611,-0.57845 0.12593,-0.25798 0.16293,-0.6799 0.11183,-1.2621 z m 3.96453,-4.73376 0.3058,2.38328 c 0.25774,-0.31066 0.5296,-0.54637 0.81605,-0.70807 0.28508,-0.16507 0.65399,-0.24741 1.10739,-0.24741 0.52255,0 0.99921,0.12452 1.43144,0.37441 0.43744,0.24717 0.80489,0.61028 1.10282,1.09162 0.30376,0.48158 0.51397,1.05942 0.62968,1.73646 0.0863,0.50499 0.10251,0.97326 0.0477,1.40386 -0.0519,0.42968 -0.17214,0.80568 -0.36125,1.12691 -0.19019,0.32302 -0.44594,0.57505 -0.76719,0.75513 -0.31884,0.17633 -0.68871,0.2647 -1.10888,0.2647 -0.25701,0 -0.50434,-0.0323 -0.7418,-0.097 -0.23314,-0.0645 -0.43608,-0.14838 -0.60881,-0.25139 -0.173,-0.1071 -0.32363,-0.21614 -0.45196,-0.3271 -0.12402,-0.11076 -0.29141,-0.2765 -0.50174,-0.49673 l 0.022,0.17145 c 0.042,0.3274 -0.001,0.57739 -0.12982,0.74894 -0.12963,0.16776 -0.31085,0.25182 -0.54337,0.25182 -0.2366,0 -0.43618,-0.0841 -0.5984,-0.25182 -0.15819,-0.17155 -0.25597,-0.42154 -0.29353,-0.74894 l -0.81606,-7.11299 c -0.0354,-0.30893 3.1e-4,-0.54039 0.10685,-0.69537 0.10957,-0.15821 0.27709,-0.23714 0.5028,-0.23714 0.237,0 0.42888,0.0753 0.57596,0.22609 0.14702,0.14757 0.2385,0.3604 0.27429,0.63928 z m 0.6846,4.73376 c 0.0859,0.66599 0.30075,1.18414 0.6454,1.5503 0.35033,0.36431 0.77027,0.54733 1.25814,0.54733 0.4153,0 0.74405,-0.18723 0.9851,-0.55986 0.24284,-0.37436 0.30983,-0.90465 0.20314,-1.58648 -0.0683,-0.4366 -0.18761,-0.80986 -0.35756,-1.121 -0.16901,-0.30942 -0.37695,-0.54628 -0.62396,-0.71147 -0.24685,-0.16862 -0.51757,-0.25274 -0.81272,-0.25274 -0.30291,0 -0.5612,0.0841 -0.77536,0.25274 -0.21534,0.16519 -0.37038,0.40798 -0.46507,0.72937 -0.0957,0.31925 -0.11503,0.70276 -0.0571,1.15181 z m 6.29761,2.38281 -1.27804,-7.06062 c -0.0552,-0.30515 -0.0288,-0.53473 0.0787,-0.6897 0.11103,-0.15452 0.28304,-0.23162 0.51627,-0.23162 0.23324,0 0.43614,0.0771 0.60907,0.23162 0.17271,0.15127 0.2893,0.38084 0.34964,0.6897 l 1.37952,7.06062 c 0.0689,0.3526 0.0418,0.61954 -0.0819,0.79962 -0.12081,0.17633 -0.30577,0.2647 -0.55461,0.2647 -0.24476,0 -0.46173,-0.0927 -0.65045,-0.27758 -0.18406,-0.18432 -0.30676,-0.44692 -0.36827,-0.78674 z m 7.4818,-2.00992 h -3.18114 c 0.0888,0.38153 0.23798,0.72007 0.44793,1.01484 0.21506,0.29629 0.46086,0.52058 0.7371,0.67199 0.281,0.15182 0.56919,0.22787 0.86402,0.22787 0.19789,0 0.37205,-0.0232 0.52237,-0.0697 0.1532,-0.0507 0.29405,-0.12655 0.42248,-0.2276 0.12717,-0.10506 0.24049,-0.21622 0.33998,-0.33343 0.0993,-0.11698 0.22598,-0.27535 0.37982,-0.47478 0.065,-0.0746 0.17547,-0.11186 0.33131,-0.11186 0.16783,0 0.31603,0.0476 0.44475,0.14298 0.12895,0.0955 0.21636,0.23078 0.26216,0.40603 0.0405,0.15484 0.0298,0.33742 -0.0323,0.54801 -0.0634,0.20712 -0.18939,0.40862 -0.3783,0.60443 -0.18658,0.19219 -0.44491,0.35284 -0.77508,0.48167 -0.32683,0.12914 -0.72508,0.19381 -1.19421,0.19381 -1.07287,0 -1.97819,-0.32264 -2.70986,-0.96259 -0.72363,-0.63291 -1.19326,-1.48053 -1.41174,-2.53325 -0.10147,-0.48892 -0.12399,-0.93771 -0.0685,-1.34728 0.0542,-0.41052 0.18457,-0.75943 0.39048,-1.04787 0.20482,-0.28694 0.48508,-0.50502 0.84083,-0.65505 0.35391,-0.15345 0.76675,-0.23002 1.23925,-0.23002 0.61465,0 1.17299,0.13023 1.67682,0.39161 0.50913,0.25875 0.92835,0.59658 1.25772,1.01492 0.33188,0.42152 0.55664,0.85422 0.67309,1.29833 0.10888,0.41528 0.0633,0.68707 -0.13768,0.81327 -0.20248,0.12239 -0.51636,0.18369 -0.9413,0.18369 z m -3.39064,-0.9427 h 2.92424 c -0.17827,-0.56011 -0.42939,-0.97456 -0.75349,-1.24653 -0.3196,-0.27456 -0.68639,-0.41134 -1.10156,-0.41134 -0.39579,0 -0.68999,0.13873 -0.88336,0.41723 -0.19132,0.27596 -0.25366,0.6885 -0.18583,1.24064 z m 11.59692,1.75187 c 0.15086,0.4706 0.17051,0.87766 0.0575,1.21981 -0.11501,0.33993 -0.36394,0.60048 -0.74716,0.78056 -0.38166,0.17633 -0.88703,0.2647 -1.51524,0.2647 -0.59967,0 -1.14139,-0.097 -1.62394,-0.29046 -0.48095,-0.19284 -0.86169,-0.43192 -1.14239,-0.71666 -0.28047,-0.28756 -0.45894,-0.57369 -0.53618,-0.85841 -0.0509,-0.18763 -0.0303,-0.34767 0.0615,-0.48035 0.0916,-0.13238 0.23511,-0.19845 0.43062,-0.19845 0.17157,0 0.31538,0.0434 0.43156,0.13015 0.11634,0.0869 0.23883,0.20928 0.36759,0.36727 0.25502,0.30473 0.52136,0.5333 0.79855,0.68478 0.28196,0.15188 0.62722,0.22797 1.03521,0.22797 0.33124,0 0.57892,-0.0761 0.7427,-0.22797 0.16609,-0.15569 0.21876,-0.3319 0.15851,-0.52844 -0.0919,-0.29979 -0.26848,-0.5174 -0.52961,-0.65376 -0.25651,-0.13603 -0.65188,-0.26557 -1.18569,-0.38867 -0.60213,-0.14328 -1.10135,-0.29232 -1.498,-0.44706 -0.39274,-0.15838 -0.72867,-0.36482 -1.00768,-0.61878 -0.27775,-0.25283 -0.46605,-0.56228 -0.56534,-0.92742 -0.088,-0.32345 -0.0754,-0.62742 0.0367,-0.91223 0.11158,-0.28333 0.32735,-0.50742 0.64703,-0.67296 0.32147,-0.16888 0.74117,-0.25313 1.25984,-0.25313 0.40724,0 0.78491,0.0421 1.13341,0.12642 0.35288,0.0844 0.65939,0.19787 0.91962,0.34046 0.26477,0.14298 0.48096,0.30184 0.64846,0.47673 0.17192,0.17545 0.28483,0.34753 0.33843,0.51623 0.0588,0.18497 0.0446,0.33695 -0.0428,0.45567 -0.0837,0.11897 -0.23917,0.17856 -0.46627,0.17856 -0.16445,0 -0.32012,-0.0477 -0.46683,-0.1429 -0.14254,-0.0951 -0.31688,-0.23733 -0.52268,-0.42646 -0.16836,-0.15713 -0.34818,-0.28251 -0.53955,-0.37636 -0.19105,-0.0937 -0.42603,-0.14048 -0.70519,-0.14048 -0.28693,0 -0.50733,0.0624 -0.66145,0.18738 -0.15559,0.12136 -0.2072,0.27441 -0.15444,0.45941 0.0484,0.16981 0.15891,0.31039 0.33161,0.42152 0.1719,0.10737 0.38795,0.19701 0.64815,0.26882 0.26054,0.0719 0.61655,0.15991 1.06841,0.26409 0.53759,0.12448 0.9912,0.27341 1.36079,0.447 0.37469,0.17411 0.68164,0.38132 0.92073,0.62199 0.24277,0.23759 0.41406,0.51123 0.5135,0.82143 z"
       id="text83"
       style="font-size:12.2208px;font-family:'Arial Rounded MT Bold';-inkscape-font-specification:'Arial Rounded MT Bold, ';stroke:#ffffff;stroke-width:0.427;stroke-miterlimit:0.3;stroke-dasharray:none"
       transform="scale(0.84811335,1.1790877)"
       aria-label="Feastables" /></g><style
     type="text/css"
     id="style1">
	.st0{fill:#000000;}
</style><style
     type="text/css"
     id="style1-1">
	.st0{fill:#000000;}
</style></svg>
