<?xml version="1.0" encoding="UTF-8" standalone="no"?>
<!-- Created with Inkscape (http://www.inkscape.org/) -->

<svg
   width="99.12912mm"
   height="43.930683mm"
   viewBox="0 0 99.12912 43.930683"
   version="1.1"
   id="svg1"
   xml:space="preserve"
   xmlns="http://www.w3.org/2000/svg"
   xmlns:svg="http://www.w3.org/2000/svg"><defs
     id="defs1" /><style
     type="text/css"
     id="style1">
	.st0{fill:#000000;}
</style><style
     type="text/css"
     id="style1-1">
	.st0{fill:#000000;}
</style><g
     id="g148"
     transform="translate(-38.469058,-134.03612)"><path
       id="path139"
       style="fill:none;fill-opacity:0.724044;stroke:#313131;stroke-width:2.17506;stroke-miterlimit:0.3;stroke-opacity:0.462963"
       d="m 50.891551,146.70419 73.703179,0.17899 c 4.6435,0.0113 7.20248,3.89054 8.3818,8.3818 l 3.36111,12.80023 c 1.17933,4.49127 -3.73835,8.35666 -8.3818,8.3818 l -79.814289,0.43212 c -4.643447,0.0251 -9.314545,-3.83293 -8.381797,-8.3818 l 2.75,-13.41134 c 0.932748,-4.54887 3.738296,-8.39308 8.381797,-8.3818 z" /><path
       id="path140"
       style="fill:#c96fb7;fill-opacity:0.724044;stroke:#000000;stroke-width:2.1;stroke-miterlimit:0.3"
       d="m 51.468895,146.66666 h 73.107175 c 4.81488,0 7.3723,4.06037 8.69112,8.69111 l 3.05556,10.72888 c 1.31883,4.63074 -3.87624,8.69112 -8.69112,8.69112 H 48.413339 c -4.814877,0 -10.009937,-4.06038 -8.691114,-8.69112 l 3.055556,-10.72888 c 1.318822,-4.63074 3.876237,-8.69111 8.691114,-8.69111 z" /><path
       id="path141"
       style="fill:#c96fb7;fill-opacity:0.724044;stroke:#000000;stroke-width:2.1;stroke-miterlimit:0.3"
       d="m 50.98435,135.51838 73.69659,-0.43212 c 5.05418,-0.0296 7.87105,4.22652 9.12324,9.12324 l 2.44444,9.55908 c 1.25218,4.8967 -4.06905,9.09522 -9.12324,9.12323 l -77.974363,0.43212 c -5.054194,0.028 -10.075241,-4.15943 -9.123235,-9.12323 l 1.833333,-9.55908 c 0.952008,-4.96382 4.06905,-9.0936 9.123235,-9.12324 z" /><path
       style="fill:none;fill-opacity:1;stroke:#000000;stroke-width:1.6;stroke-miterlimit:0.3;stroke-dasharray:none;stroke-opacity:1"
       d="m 39.755114,155.34743 -0.476869,12.5871"
       id="path142" /><path
       style="fill:none;fill-opacity:1;stroke:#000000;stroke-width:1.7;stroke-miterlimit:0.3;stroke-dasharray:none;stroke-opacity:1"
       d="m 136.52378,155.42343 -0.18984,12.55453"
       id="path143" /><g
       style="fill:#ffffff;fill-opacity:1;stroke:#000000;stroke-width:1.34737;stroke-dasharray:none;stroke-opacity:1"
       id="g149"
       transform="matrix(1.2585905,0,0,1.1054833,42.059465,135.3426)"><path
         d="m 16.8311,15.6402 c 0.67,-0.44 1.55,0.04 1.55,0.84 v 1.29 c 0,1.27 -0.99,2.63 -2.18,3.03 l -3.19,1.06 c -0.56,0.19 -1.47,0.19 -2.02,0 l -3.19001,-1.06 c -1.2,-0.4 -2.18,-1.76 -2.18,-3.03 v -1.3 c 0,-0.79 0.88,-1.27 1.54,-0.84 l 2.06,1.34 c 0.79001,0.53 1.79001,0.79 2.79001,0.79 1,0 2,-0.26 2.79,-0.79 z"
         fill="#292d32"
         id="path1-6"
         style="fill:#ffffff;fill-opacity:1;stroke:#000000;stroke-width:1.34737;stroke-dasharray:none;stroke-opacity:1" /><path
         d="m 19.9795,6.45859 -5.99,-3.93 c -1.08,-0.71 -2.86,-0.71 -3.94,0 l -6.01997,3.93 c -1.93,1.25 -1.93,4.08001 0,5.34001 l 1.6,1.04 4.41997,2.88 c 1.08,0.71 2.86,0.71 3.94,0 l 4.39,-2.88 1.37,-0.9 v 3.06 c 0,0.41 0.34,0.75 0.75,0.75 0.41,0 0.75,-0.34 0.75,-0.75 v -4.92 c 0.4,-1.29001 -0.01,-2.79001 -1.27,-3.62001 z"
         fill="#292d32"
         id="path2-8"
         style="fill:#ffffff;fill-opacity:1;stroke:#000000;stroke-width:1.34737;stroke-dasharray:none;stroke-opacity:1" /></g><path
       d="m 86.999155,125.05016 h -3.54918 l -0.248728,2.27917 h 3.002181 c 0.278321,0 0.479225,0.0636 0.602835,0.19085 0.128241,0.12333 0.183045,0.29007 0.164259,0.50046 -0.01883,0.21084 -0.103772,0.37859 -0.254951,0.50305 -0.151373,0.12462 -0.365228,0.18699 -0.641417,0.18699 h -3.023655 l -0.334016,3.06069 c -0.04317,0.39556 -0.163659,0.69112 -0.361634,0.88576 -0.193671,0.19069 -0.427534,0.28617 -0.701309,0.28617 -0.277988,0 -0.494069,-0.0976 -0.648014,-0.29266 -0.149441,-0.19463 -0.200787,-0.48802 -0.154395,-0.87927 l 0.830374,-7.00308 c 0.03025,-0.25516 0.09305,-0.46197 0.188333,-0.62076 0.09559,-0.16248 0.227888,-0.27921 0.396933,-0.35036 0.173389,-0.075 0.386528,-0.11256 0.639517,-0.11256 l 4.216495,0 c 0.285115,0 0.490386,0.0632 0.615938,0.18964 0.130084,0.12268 0.186487,0.28518 0.169053,0.4877 -0.01781,0.20694 -0.102895,0.3744 -0.255367,0.5022 -0.148283,0.12397 -0.366082,0.18601 -0.653252,0.18601 z m 7.586499,4.34292 c -0.02544,0.51232 -0.128007,0.98713 -0.308209,1.42387 -0.181006,0.4387 -0.430691,0.8172 -0.749216,1.13481 -0.319552,0.31863 -0.694755,0.56476 -1.1254,0.73785 -0.431127,0.16905 -0.910212,0.25369 -1.436704,0.25369 -0.52228,0 -0.985663,-0.0868 -1.389621,-0.26019 -0.403253,-0.17308 -0.745496,-0.41919 -1.026575,-0.7378 -0.275646,-0.32187 -0.47482,-0.6982 -0.597791,-1.12836 -0.117923,-0.43251 -0.154855,-0.90734 -0.11136,-1.42387 0.04362,-0.51798 0.161538,-0.9897 0.353301,-1.41579 0.190923,-0.42424 0.443501,-0.78522 0.75763,-1.08365 0.313159,-0.29751 0.681161,-0.52512 1.104209,-0.68331 0.422644,-0.16198 0.881608,-0.24287 1.377427,-0.24287 0.503947,0 0.956145,0.0809 1.357101,0.24287 0.401634,0.16225 0.740981,0.39394 1.018182,0.69555 0.278072,0.30257 0.482353,0.66361 0.61261,1.08379 0.134942,0.42201 0.189928,0.88959 0.164416,1.40341 z m -1.700181,0 c 0.04068,-0.69696 -0.07995,-1.23607 -0.360821,-1.61991 -0.275669,-0.38231 -0.666689,-0.57291 -1.173876,-0.57291 -0.327217,0 -0.621614,0.086 -0.88354,0.25831 -0.262094,0.16848 -0.473286,0.4197 -0.633647,0.75429 -0.160916,0.33575 -0.25856,0.72892 -0.292631,1.18022 -0.03391,0.44918 0.0028,0.84339 0.110531,1.18194 0.112273,0.33973 0.287059,0.60169 0.524398,0.78527 0.242265,0.17964 0.535111,0.26958 0.878208,0.26958 0.518828,0 0.943354,-0.19905 1.272583,-0.59594 0.332319,-0.39954 0.518319,-0.94732 0.558795,-1.64085 z m 4.681055,1.01675 -0.04987,1.45814 c -0.01221,0.35714 -0.10339,0.62693 -0.273725,0.80865 -0.17049,0.17771 -0.382207,0.26668 -0.634923,0.26668 -0.248504,0 -0.449058,-0.0911 -0.601453,-0.27318 -0.152115,-0.1817 -0.220484,-0.44932 -0.205354,-0.80215 l 0.204888,-4.77821 c 0.03214,-0.74965 0.318386,-1.1223 0.85891,-1.1223 0.276358,0 0.472354,0.087 0.588143,0.26111 0.116,0.17447 0.174288,0.43269 0.174707,0.77533 0.211678,-0.34264 0.423981,-0.60086 0.637183,-0.77533 0.216881,-0.17415 0.49993,-0.26111 0.849442,-0.26111 0.349512,0 0.686835,0.087 1.012413,0.26111 0.32616,0.17447 0.48672,0.40623 0.48121,0.69569 -0.004,0.20436 -0.0787,0.37432 -0.22469,0.50968 -0.14198,0.13144 -0.29503,0.19723 -0.459007,0.19723 -0.06149,0 -0.210246,-0.037 -0.446124,-0.11099 -0.231498,-0.078 -0.437256,-0.11701 -0.617415,-0.11701 -0.245671,0 -0.448295,0.0657 -0.608035,0.19716 -0.159827,0.12755 -0.287062,0.31918 -0.381735,0.57529 -0.09492,0.25679 -0.164992,0.56417 -0.210142,0.92262 -0.04518,0.35558 -0.07667,0.79242 -0.09443,1.31159 z m 9.555132,-0.89102 0.0336,2.31051 c 0.005,0.36993 -0.0725,0.64829 -0.23389,0.83431 -0.1617,0.18636 -0.37746,0.27967 -0.64703,0.27967 -0.26113,0 -0.47455,-0.0933 -0.64002,-0.27967 -0.16095,-0.18602 -0.24235,-0.46438 -0.24444,-0.83431 l -0.0156,-2.76239 c -0.002,-0.42901 -0.0187,-0.76093 -0.0488,-0.99672 -0.03,-0.23523 -0.10892,-0.4267 -0.23661,-0.57468 -0.12753,-0.15185 -0.32829,-0.22769 -0.60244,-0.22769 -0.54828,0 -0.91107,0.18868 -1.08891,0.56714 -0.17441,0.37995 -0.26397,0.9277 -0.26819,1.64609 l -0.0138,2.34825 c -0.002,0.36562 -0.0857,0.64397 -0.25096,0.83431 -0.1613,0.18636 -0.37474,0.27967 -0.64009,0.27967 -0.26115,0 -0.47477,-0.0933 -0.64063,-0.27967 -0.1613,-0.19034 -0.23911,-0.46869 -0.2337,-0.83431 l 0.0726,-4.90506 c 0.005,-0.31389 0.0794,-0.55168 0.22421,-0.71393 0.14859,-0.16198 0.34064,-0.24287 0.57636,-0.24287 0.22758,0 0.41591,0.0768 0.56515,0.23071 0.15358,0.15006 0.22958,0.35931 0.22782,0.62814 l -0.001,0.15922 c 0.29183,-0.34666 0.60265,-0.60077 0.93284,-0.76304 0.32963,-0.162 0.69542,-0.2429 1.09779,-0.2429 0.41863,0 0.77899,0.0829 1.08148,0.24898 0.30302,0.16635 0.55463,0.41844 0.75497,0.75696 0.27678,-0.34259 0.57441,-0.59468 0.89323,-0.75696 0.3182,-0.16606 0.67218,-0.24898 1.06235,-0.24898 0.45521,0 0.84993,0.089 1.18463,0.26722 0.33532,0.17857 0.59021,0.43481 0.76468,0.76935 0.15347,0.30292 0.2418,0.78173 0.26473,1.43907 l 0.11768,3.37409 c 0.0129,0.36993 -0.0593,0.64829 -0.21695,0.83431 -0.15791,0.18636 -0.37177,0.27967 -0.64134,0.27967 -0.26113,0 -0.47855,-0.0933 -0.65201,-0.27967 -0.16904,-0.19034 -0.25818,-0.46869 -0.26764,-0.83431 l -0.0754,-2.91255 c -0.009,-0.36609 -0.0335,-0.65839 -0.072,-0.87754 -0.0344,-0.21867 -0.12101,-0.40189 -0.25987,-0.54986 -0.13868,-0.14774 -0.345,-0.22153 -0.61914,-0.22153 -0.22096,0 -0.43044,0.0656 -0.62865,0.19689 -0.19437,0.13148 -0.34522,0.30844 -0.45253,0.53113 -0.11897,0.2853 -0.17329,0.79179 -0.16264,1.52295 z m 10.0555,2.4265 c -0.39395,0.33155 -0.78163,0.58202 -1.16254,0.7508 -0.3776,0.16472 -0.80882,0.24719 -1.29318,0.24719 -0.44226,0 -0.83616,-0.089 -1.18126,-0.26668 -0.34048,-0.18172 -0.60749,-0.42564 -0.80105,-0.73131 -0.19297,-0.30473 -0.29658,-0.63415 -0.31124,-0.98801 -0.0197,-0.47549 0.11094,-0.87913 0.39115,-1.21177 0.27925,-0.33151 0.67214,-0.55329 1.17894,-0.66608 0.10612,-0.0251 0.36955,-0.0814 0.79004,-0.16893 0.42011,-0.0875 0.77849,-0.16657 1.07525,-0.23727 0.30042,-0.0748 0.6244,-0.16409 0.97184,-0.26779 -0.0495,-0.44675 -0.16066,-0.77223 -0.3335,-0.97767 -0.16867,-0.2091 -0.50022,-0.31348 -0.99491,-0.31348 -0.4252,0 -0.74292,0.0593 -0.95334,0.17812 -0.2066,0.11894 -0.38172,0.29762 -0.52543,0.53637 -0.13997,0.23934 -0.24104,0.39854 -0.30301,0.4772 -0.0581,0.0746 -0.19209,0.1119 -0.40204,0.1119 -0.18934,0 -0.35667,-0.0601 -0.50186,-0.18021 -0.14108,-0.12409 -0.21563,-0.28104 -0.22379,-0.47069 -0.0127,-0.29611 0.0792,-0.58312 0.27542,-0.86112 0.19561,-0.27719 0.50903,-0.50487 0.94008,-0.68339 0.43025,-0.17818 0.97222,-0.26715 1.6265,-0.26715 0.73148,0 1.31217,0.0869 1.74264,0.26107 0.43097,0.17038 0.74558,0.44281 0.94384,0.81815 0.20314,0.37681 0.32791,0.87877 0.37395,1.50781 0.0292,0.39941 0.0521,0.73978 0.0687,1.02048 0.0206,0.28151 0.0416,0.5955 0.0629,0.94225 0.0239,0.32673 0.10113,0.66947 0.23203,1.0284 0.13524,0.35595 0.2069,0.58606 0.21463,0.68946 0.0135,0.18121 -0.0581,0.34762 -0.21512,0.49914 -0.15338,0.14741 -0.33545,0.2212 -0.54605,0.2212 -0.17689,0 -0.35752,-0.0846 -0.54163,-0.25369 -0.18409,-0.17309 -0.38336,-0.42138 -0.59752,-0.7443 z m -0.27575,-2.51454 c -0.24241,0.0922 -0.59854,0.19084 -1.06861,0.29585 -0.46666,0.10091 -0.79002,0.17667 -0.96978,0.22721 -0.18008,0.0463 -0.3494,0.14121 -0.50808,0.28475 -0.15913,0.13952 -0.23241,0.33644 -0.21964,0.59112 0.0132,0.26387 0.12274,0.49 0.32879,0.67812 0.20623,0.1842 0.46861,0.27642 0.78685,0.27642 0.33918,0 0.64672,-0.0751 0.92231,-0.22505 0.27909,-0.15402 0.47781,-0.35048 0.59626,-0.58912 0.13736,-0.26354 0.18646,-0.69558 0.14777,-1.29387 z m 2.89074,-3.31765 h 0.18302 l -0.0811,-0.99086 c -0.0216,-0.2641 -0.0324,-0.46968 -0.0324,-0.61709 0.004,-0.15117 0.0334,-0.28027 0.089,-0.38738 0.0552,-0.11095 0.14032,-0.20002 0.25526,-0.26727 0.11456,-0.0711 0.24612,-0.10668 0.39474,-0.10668 0.20889,0 0.40448,0.077 0.58701,0.23132 0.12185,0.10299 0.20371,0.2299 0.24551,0.38083 0.0456,0.14719 0.0808,0.35842 0.10576,0.63413 l 0.10161,1.123 h 0.61008 c 0.23589,0 0.42028,0.0567 0.55327,0.17019 0.13684,0.10957 0.21383,0.2518 0.23089,0.42682 0.0219,0.22433 -0.0528,0.38168 -0.22396,0.47171 -0.16729,0.0901 -0.41675,0.13519 -0.74826,0.13519 h -0.31309 l 0.28386,3.13725 c 0.0246,0.27135 0.0519,0.48174 0.0821,0.63077 0.034,0.14499 0.095,0.26455 0.18297,0.3586 0.0919,0.0899 0.22984,0.13481 0.41389,0.13481 0.10039,0 0.23472,-0.0171 0.40293,-0.0514 0.16775,-0.0385 0.29968,-0.0578 0.39583,-0.0578 0.13796,0 0.26701,0.0578 0.38724,0.17342 0.12411,0.11148 0.19462,0.25101 0.21143,0.41871 0.0285,0.28445 -0.10095,0.50265 -0.38879,0.65416 -0.28828,0.15174 -0.71689,0.2277 -1.2855,0.2277 -0.53914,0 -0.95578,-0.0933 -1.24951,-0.27968 -0.29318,-0.18601 -0.49726,-0.44282 -0.61235,-0.76989 -0.11053,-0.32597 -0.18784,-0.75966 -0.23201,-1.29963 L 120.0736,127.317 h -0.221 c -0.24147,0 -0.43014,-0.0574 -0.56589,-0.17203 -0.1356,-0.11452 -0.21008,-0.25952 -0.22355,-0.43486 -0.0134,-0.17503 0.0408,-0.31725 0.16262,-0.42683 0.12542,-0.11349 0.31416,-0.17019 0.56632,-0.17019 z m 9.45285,3.7018 h -3.32065 c 0.0474,0.39198 0.16278,0.73891 0.34643,1.04029 0.18825,0.30231 0.41666,0.53072 0.68509,0.68471 0.27304,0.15424 0.56254,0.23145 0.8682,0.23145 0.20517,0 0.38864,-0.0236 0.55035,-0.0708 0.16528,-0.0514 0.32103,-0.12854 0.46718,-0.23128 0.14547,-0.10689 0.27745,-0.22006 0.39594,-0.3395 0.11835,-0.1193 0.2707,-0.28097 0.45688,-0.48482 0.0775,-0.0763 0.19738,-0.11448 0.35965,-0.11448 0.17476,0 0.3227,0.0488 0.44393,0.14631 0.12135,0.0977 0.19406,0.2358 0.21808,0.41462 0.0212,0.15781 -0.0145,0.34366 -0.10714,0.55772 -0.0934,0.21022 -0.25084,0.41443 -0.47236,0.6126 -0.21833,0.19425 -0.50643,0.35642 -0.86433,0.48634 -0.35414,0.13009 -0.77358,0.1952 -1.25795,0.1952 -1.10774,0 -2.0047,-0.32513 -2.68751,-0.9722 -0.67837,-0.64286 -1.07144,-1.50836 -1.18161,-2.59059 -0.0515,-0.50541 -0.0247,-0.97091 0.0795,-1.39703 0.10342,-0.42837 0.28029,-0.79346 0.53035,-1.09596 0.24927,-0.30156 0.57068,-0.53118 0.96432,-0.68935 0.39253,-0.16196 0.83847,-0.24283 1.33832,-0.24283 0.65022,0 1.22417,0.13753 1.72293,0.41318 0.50374,0.27238 0.90124,0.62722 1.19241,1.06542 0.2925,0.4402 0.4702,0.8907 0.53233,1.35162 0.0579,0.42967 -0.0264,0.71018 -0.25327,0.84025 -0.22776,0.12603 -0.56354,0.18911 -1.00712,0.18911 z m -3.42835,-0.97315 h 3.06282 c -0.11461,-0.58132 -0.32502,-1.01297 -0.63106,-1.29694 -0.30155,-0.28723 -0.67072,-0.43052 -1.10818,-0.43052 -0.41702,0 -0.74379,0.14534 -0.98086,0.43669 -0.23414,0.2881 -0.34856,0.71773 -0.34272,1.29077 z m 11.01739,3.10354 -0.0371,-0.22542 c -0.16155,0.26626 -0.34104,0.49013 -0.5384,0.67133 -0.19773,0.18152 -0.42444,0.31571 -0.68002,0.40238 -0.25512,0.0911 -0.55545,0.13667 -0.90081,0.13667 -0.41695,0 -0.80505,-0.089 -1.1638,-0.26664 -0.3539,-0.17737 -0.64336,-0.42127 -0.86829,-0.73122 -0.26687,-0.37322 -0.44924,-0.907 -0.54737,-1.59873 l -0.47843,-3.37267 c -0.0474,-0.33436 -0.007,-0.58234 0.12023,-0.7446 0.12669,-0.16604 0.3139,-0.24895 0.56181,-0.24895 0.25198,0 0.4675,0.0829 0.64679,0.24895 0.1796,0.16632 0.29432,0.41431 0.34404,0.7446 l 0.40872,2.71519 c 0.0602,0.39986 0.14436,0.73787 0.25253,1.01335 0.10783,0.272 0.25938,0.48716 0.45464,0.6451 0.19914,0.15392 0.44731,0.23097 0.74428,0.23097 0.28861,0 0.54651,-0.0877 0.7734,-0.26301 0.22649,-0.17494 0.37512,-0.40275 0.44604,-0.68307 0.0555,-0.24567 0.0153,-0.78149 -0.11946,-1.60269 l -0.33744,-2.05584 c -0.0542,-0.33029 -0.0175,-0.57828 0.10973,-0.7446 0.12705,-0.16604 0.31445,-0.24895 0.56235,-0.24895 0.24792,0 0.46123,0.0829 0.64016,0.24895 0.17854,0.16226 0.29673,0.41024 0.3545,0.7446 l 0.85899,4.9714 c 0.058,0.33582 0.026,0.58843 -0.0963,0.7572 -0.11834,0.16905 -0.29552,0.25369 -0.53139,0.25369 -0.23586,0 -0.44618,-0.0868 -0.6307,-0.26019 -0.1807,-0.1774 -0.29687,-0.42351 -0.34862,-0.7378 z m 4.73083,-1.53548 0.27712,1.45814 c 0.0679,0.35714 0.0372,0.62693 -0.0924,0.80865 -0.13064,0.17771 -0.3224,0.26668 -0.57512,0.26668 -0.2485,0 -0.46949,-0.0911 -0.66271,-0.27318 -0.19286,-0.1817 -0.32124,-0.44932 -0.38523,-0.80215 l -0.86662,-4.77821 c -0.13597,-0.74965 0.0667,-1.1223 0.60723,-1.1223 0.27636,0 0.49185,0.087 0.64669,0.26111 0.15513,0.17447 0.27133,0.43269 0.34858,0.77533 0.13484,-0.34264 0.28924,-0.60086 0.46332,-0.77533 0.17782,-0.17415 0.44137,-0.26111 0.79089,-0.26111 0.34951,0 0.70633,0.087 1.07096,0.26111 0.36529,0.17447 0.57782,0.40623 0.63723,0.69569 0.0419,0.20436 0.005,0.37432 -0.11041,0.50968 -0.1125,0.13144 -0.2508,0.19723 -0.41477,0.19723 -0.0615,0 -0.21858,-0.037 -0.47102,-0.11099 -0.24899,-0.078 -0.4635,-0.11701 -0.64365,-0.11701 -0.24568,0 -0.43357,0.0657 -0.56383,0.19716 -0.13122,0.12755 -0.21548,0.31918 -0.25272,0.57529 -0.0373,0.25679 -0.0385,0.56417 -0.003,0.92262 0.0345,0.35558 0.10101,0.79242 0.19968,1.31159 z"
       id="text149"
       style="font-size:12.7175px;font-family:'Arial Rounded MT Bold';-inkscape-font-specification:'Arial Rounded MT Bold, ';stroke:#ffffff;stroke-width:0.306422;stroke-miterlimit:0.3"
       transform="scale(0.89830651,1.1132058)"
       aria-label="Formateur" /></g></svg>
