<?xml version="1.0" encoding="UTF-8" standalone="no"?>
<!-- Created with Inkscape (http://www.inkscape.org/) -->

<svg
   width="99.106888mm"
   height="31.852869mm"
   viewBox="0 0 99.106888 31.852869"
   version="1.1"
   id="svg1"
   xml:space="preserve"
   xmlns="http://www.w3.org/2000/svg"
   xmlns:svg="http://www.w3.org/2000/svg"><defs
     id="defs1" /><style
     type="text/css"
     id="style1">
	.st0{fill:#000000;}
</style><style
     type="text/css"
     id="style1-1">
	.st0{fill:#000000;}
</style><g
     id="g136"
     transform="translate(-38.469041,-143.97488)"><path
       id="path113"
       style="fill:#abdfd4;fill-opacity:0.724044;stroke:#000000;stroke-width:2.1;stroke-miterlimit:0.3"
       d="m 51.468895,146.66666 h 73.107175 c 4.81488,0 7.3723,4.06037 8.69112,8.69111 l 3.05556,10.72888 c 1.31883,4.63074 -3.87624,8.69112 -8.69112,8.69112 H 48.413339 c -4.814877,0 -10.009937,-4.06038 -8.691114,-8.69112 l 3.055556,-10.72888 c 1.318822,-4.63074 3.876237,-8.69111 8.691114,-8.69111 z" /><path
       id="path114"
       style="fill:#abdfd4;fill-opacity:0.724044;stroke:#000000;stroke-width:2.1;stroke-miterlimit:0.3"
       d="m 50.98435,145.45716 73.69659,-0.43212 c 5.05418,-0.0296 7.87105,4.22652 9.12324,9.12324 l 2.44444,9.55908 c 1.25218,4.8967 -4.06905,9.09522 -9.12324,9.12323 l -77.974363,0.43212 c -5.054194,0.028 -10.075241,-4.15943 -9.123235,-9.12323 l 1.833333,-9.55908 c 0.952008,-4.96382 4.06905,-9.0936 9.123235,-9.12324 z" /><g
       style="fill:#ffffff;fill-opacity:1;stroke:#000000;stroke-width:20.9221;stroke-dasharray:none;stroke-opacity:1"
       id="g135"
       transform="matrix(0.05677626,0,0,0.06672563,47.337979,142.24684)"><g
         id="g118"
         style="fill:#ffffff;fill-opacity:1;stroke:#000000;stroke-width:20.9221;stroke-dasharray:none;stroke-opacity:1">
	<g
   id="g117"
   style="fill:#ffffff;fill-opacity:1;stroke:#000000;stroke-width:20.9221;stroke-dasharray:none;stroke-opacity:1">
		<path
   d="M 270.84315,176.14961 242.0454,143.98195 c -1.89241,-2.1148 -5.15361,-2.31379 -7.29146,-0.44604 -2.13967,1.87185 -2.34783,5.11391 -0.45613,7.24092 l 22.78021,25.6259 -43.62382,-14.29496 c -2.2861,-0.74947 -4.76978,0.49993 -5.55036,2.7951 l -7.01723,20.63281 c 13.38537,-0.77677 26.58383,6.21944 33.23945,19.10793 9.20433,17.82668 2.48032,40.28202 -15.28642,49.96936 l -10.2829,5.60562 30.94601,10.59742 c 2.40947,0.82557 4.99586,-0.55005 5.7738,-3.06881 l 26.70214,-86.46297 -0.0197,-0.007 c 0.53033,-1.72105 0.18204,-3.67788 -1.1158,-5.12802 z"
   id="path117"
   style="fill:#ffffff;fill-opacity:1;stroke:#000000;stroke-width:20.9221;stroke-dasharray:none;stroke-opacity:1" />
	</g>
</g><g
         id="g120"
         style="fill:#ffffff;fill-opacity:1;stroke:#000000;stroke-width:20.9221;stroke-dasharray:none;stroke-opacity:1">
	<g
   id="g119"
   style="fill:#ffffff;fill-opacity:1;stroke:#000000;stroke-width:20.9221;stroke-dasharray:none;stroke-opacity:1">
		<path
   id="path118"
   style="fill:#ffffff;fill-opacity:1;stroke:#000000;stroke-width:20.9221;stroke-dasharray:none;stroke-opacity:1"
   d="m 147.27343,126.39282 c -0.9196,22.46611 -20.37789,41.02201 -43.44396,41.02201 -23.066068,0 -40.305769,-18.5559 -38.539269,-41.02201 1.730741,-22.01134 21.127265,-39.53072 43.354809,-39.53072 22.22754,0 39.5294,17.51938 38.62842,39.53072 z" />
	</g>
</g><g
         id="g122"
         style="fill:#ffffff;fill-opacity:1;stroke:#000000;stroke-width:20.9221;stroke-dasharray:none;stroke-opacity:1">
	<g
   id="g121"
   style="fill:#ffffff;fill-opacity:1;stroke:#000000;stroke-width:20.9221;stroke-dasharray:none;stroke-opacity:1">
		<path
   d="m 219.62034,212.40883 c -4.87399,-9.5926 -16.44586,-13.25667 -25.92122,-8.2334 l -51.39699,27.24548 c -7.26097,-3.72629 -57.049367,-29.27647 -64.982677,-33.34853 l 45.300737,10.52242 c -2.02543,-15.39387 -14.51425,-26.47402 -29.79345,-26.58428 l -29.323583,-0.212 c -17.7229,-0.12812 -33.497567,14.45043 -35.123746,32.68219 -10.281065,115.13148 -10.748038,121.16891 -11.12715,129.77732 -1.426514,16.75239 3.057472,24.71256 14.148584,28.86734 l 9.213503,3.45152 H 20.377686 c -13.7247792,0.004 -26.065424,12.25101 -27.582232,27.5283 -1.5359435,15.47002 8.5847215,28.15581 22.624225,28.15581 H 147.47778 c 16.19631,0 30.13656,-12.93382 33.10972,-30.53358 2.93006,-17.35161 -5.75355,-33.73938 -20.55829,-39.15449 l -45.76606,-16.73931 3.76199,-57.40737 -50.222475,-49.53188 c 30.75802,16.10546 33.651645,17.62101 64.222195,33.62847 5.4057,2.92293 12.15492,3.0774 18.15974,-0.16835 l 61.04853,-33.00417 c 9.58327,-5.17923 13.30387,-17.26679 8.38721,-26.94149 z"
   id="path120"
   style="fill:#ffffff;fill-opacity:1;stroke:#000000;stroke-width:20.9221;stroke-dasharray:none;stroke-opacity:1" />
	</g>
</g><g
         id="g124"
         style="fill:#ffffff;fill-opacity:1;stroke:#000000;stroke-width:20.9221;stroke-dasharray:none;stroke-opacity:1">
	<g
   id="g123"
   style="fill:#ffffff;fill-opacity:1;stroke:#000000;stroke-width:20.9221;stroke-dasharray:none;stroke-opacity:1">
		<path
   d="m 501.92525,395.281 h -13.44074 c 9.51899,-3.62561 4.62279,-1.75994 6.10908,-2.32908 9.83771,-3.78192 9.96294,-12.3494 8.88285,-23.02014 l -9.24596,-85.62754 c -1.30782,-12.11807 -11.35355,-22.32665 -23.23497,-22.94124 -0.35932,-0.0182 -12.63537,-0.58396 -26.35779,0.81582 -10.36595,1.05728 -15.57148,12.25979 -14.5595,22.57903 l 2.34473,23.92203 24.74088,-29.37741 -22.29097,46.22059 c 0,0 -30.80618,2.89858 -39.06299,3.67573 -7.36187,0.69301 -12.3373,7.7424 -11.19813,15.6634 1.15195,8.08957 8.16618,14.01351 15.49306,13.31448 0.001,0 46.35395,-4.41415 46.35477,-4.41633 3.84615,-0.29946 7.7926,-2.77748 9.76953,-7.13379 l 21.48147,-45.79555 -8.54725,53.33164 c -0.62967,3.92736 -0.72917,9.29037 -3.82527,10.54055 l -56.53004,21.18365 c -9.69561,3.63212 -15.00675,14.5972 -12.5711,26.16926 2.43537,11.5465 11.9496,20.20373 22.67639,20.20373 h 87.03364 c 9.2525,0 15.78589,-8.37592 14.60208,-18.62941 C 519.37306,403.46277 511.0388,395.281 501.92525,395.281 Z"
   id="path122"
   style="fill:#ffffff;fill-opacity:1;stroke:#000000;stroke-width:20.9221;stroke-dasharray:none;stroke-opacity:1" />
	</g>
</g><g
         id="g126"
         style="fill:#ffffff;fill-opacity:1;stroke:#000000;stroke-width:20.9221;stroke-dasharray:none;stroke-opacity:1">
	<g
   id="g125"
   style="fill:#ffffff;fill-opacity:1;stroke:#000000;stroke-width:20.9221;stroke-dasharray:none;stroke-opacity:1">
		<path
   d="m 460.35046,153.03004 c -4.31177,-3.87721 -9.83741,-6.03212 -15.35653,-5.99286 l -19.02125,0.13513 c -5.5154,0.0393 -10.60889,2.26413 -14.15707,6.19377 -3.56196,3.94187 -5.2803,9.28329 -4.76453,14.84701 l 3.31102,35.6971 c 4.77631,-16.22659 19.09046,-27.54965 36.99941,-27.54965 7.60008,0 15.24605,2.11339 22.12875,6.03735 l -1.48562,-14.59423 c -0.56714,-5.5663 -3.32613,-10.88178 -7.65418,-14.77362 z"
   id="path124"
   style="fill:#ffffff;fill-opacity:1;stroke:#000000;stroke-width:20.9221;stroke-dasharray:none;stroke-opacity:1" />
	</g>
</g><g
         id="g128"
         style="fill:#ffffff;fill-opacity:1;stroke:#000000;stroke-width:20.9221;stroke-dasharray:none;stroke-opacity:1">
	<g
   id="g127"
   style="fill:#ffffff;fill-opacity:1;stroke:#000000;stroke-width:20.9221;stroke-dasharray:none;stroke-opacity:1">
		<path
   id="path126"
   style="fill:#ffffff;fill-opacity:1;stroke:#000000;stroke-width:20.9221;stroke-dasharray:none;stroke-opacity:1"
   d="m 458.28578,108.90912 c 1.69318,16.45445 -10.69089,29.97878 -27.68413,29.97878 -16.99323,0 -31.78015,-13.52433 -33.01039,-29.97878 -1.21177,-16.207216 11.22242,-29.168123 27.75614,-29.168123 16.53372,0 31.27065,12.960907 32.93838,29.168123 z" />
	</g>
</g><g
         id="g130"
         style="fill:#ffffff;fill-opacity:1;stroke:#000000;stroke-width:20.9221;stroke-dasharray:none;stroke-opacity:1">
	<g
   id="g129"
   style="fill:#ffffff;fill-opacity:1;stroke:#000000;stroke-width:20.9221;stroke-dasharray:none;stroke-opacity:1">
		<path
   id="path128"
   style="fill:#ffffff;fill-opacity:1;stroke:#000000;stroke-width:20.9221;stroke-dasharray:none;stroke-opacity:1"
   d="m 382.95526,176.1468 c 1.15376,17.50027 -12.10878,31.89042 -29.63924,31.89042 -17.53046,0 -32.28556,-14.39015 -32.94696,-31.89042 -0.65116,-17.22919 12.64349,-31.00157 29.68534,-31.00157 17.04185,0 31.76498,13.77238 32.90086,31.00157 z" />
	</g>
</g><g
         id="g132"
         style="fill:#ffffff;fill-opacity:1;stroke:#000000;stroke-width:20.9221;stroke-dasharray:none;stroke-opacity:1">
	<g
   id="g131"
   style="fill:#ffffff;fill-opacity:1;stroke:#000000;stroke-width:20.9221;stroke-dasharray:none;stroke-opacity:1">
		<path
   d="m 429.97997,255.42101 c -3.44633,-2.36925 -6.56076,-5.13807 -9.38006,-8.39537 -2.91922,-3.37249 -5.36259,-7.11802 -7.26768,-11.10538 l 1.22872,13.24322 -22.51166,7.96995 -1.1884,-18.31537 c -0.38435,-5.92825 -3.04131,-11.58849 -7.36713,-15.73221 -4.31015,-4.12962 -9.9323,-6.42158 -15.62799,-6.37979 l -19.62979,0.14384 c -5.69187,0.0418 -11.02768,2.4102 -14.83393,6.59372 -3.82032,4.19899 -5.79023,9.88594 -5.46293,15.81054 l 1.27194,22.99343 25.52081,-28.23834 -23.84239,44.42219 c -23.99517,2.20397 -15.37129,1.41203 -38.44571,3.53124 -6.81477,0.62663 -11.85046,6.6715 -11.71603,13.81528 0.14863,7.8413 6.29023,14.07067 13.52436,14.06961 0.96436,0 46.75626,-4.28498 46.77855,-4.29442 0.01,0.001 0.0187,-0.001 0.0266,-0.002 4.29972,-0.42397 7.92059,-3.03574 9.85525,-6.84969 l 23.03311,-43.99495 -9.63307,50.75123 c -0.7848,3.76962 -2.09342,9.27325 -5.25544,10.60366 -32.90704,11.88638 -19.12631,6.90787 -56.29478,20.33465 -9.66014,3.48907 -15.32357,14.01671 -13.42961,25.10171 1.90868,11.19571 10.89362,19.38764 21.34731,19.38764 h 81.3187 c 5.67524,-6.22504 11.20724,-7.82546 16.27986,-9.71547 -6.62992,0.63559 -6.95551,0.69884 -8.44263,0.69884 -13.66624,0 -25.50628,-11.1782 -27.51637,-25.82329 -2.0509,-14.75562 6.70409,-27.65092 20.06029,-29.74366 1.41932,-0.22241 0.63766,-0.13557 3.48676,-0.40243 l -0.97256,-14.97943 c 1.10844,0.0136 -5.35077,0.009 24.59087,0.009 l -1.48318,-15.97136 c -1.05619,-11.37443 3.14339,-22.66886 11.97825,-29.5369 z"
   id="path130"
   style="fill:#ffffff;fill-opacity:1;stroke:#000000;stroke-width:20.9221;stroke-dasharray:none;stroke-opacity:1" />
	</g>
</g><g
         id="g134"
         style="fill:#ffffff;fill-opacity:1;stroke:#000000;stroke-width:20.9221;stroke-dasharray:none;stroke-opacity:1">
	<g
   id="g133"
   style="fill:#ffffff;fill-opacity:1;stroke:#000000;stroke-width:20.9221;stroke-dasharray:none;stroke-opacity:1">
		<path
   d="m 482.38062,214.22952 c -4.12649,-15.97837 -18.74444,-27.28539 -34.01316,-27.28539 -19.37233,0 -32.62369,17.53507 -28.11611,37.1508 3.75708,16.35042 18.52135,28.20559 34.23649,28.20559 19.9368,0 33.00085,-18.28436 27.89278,-38.071 z"
   id="path132"
   style="fill:#ffffff;fill-opacity:1;stroke:#000000;stroke-width:20.9221;stroke-dasharray:none;stroke-opacity:1" />
	</g>
</g></g><path
       style="font-size:12.5172px;font-family:'Arial Rounded MT Bold';-inkscape-font-specification:'Arial Rounded MT Bold, ';stroke:#ffffff;stroke-width:0.501178;stroke-miterlimit:0.3"
       d="m 94.649508,123.83556 h -3.38197 l -0.384803,2.22622 h 2.873184 c 0.266362,0 0.454897,0.0624 0.565756,0.1873 0.115577,0.12111 0.158336,0.28494 0.12806,0.49179 -0.03037,0.20747 -0.121642,0.37267 -0.273959,0.49528 -0.152586,0.12284 -0.36149,0.18434 -0.626511,0.18434 h -2.901383 l -0.524823,3.03629 c -0.06828,0.39501 -0.204644,0.69056 -0.409227,0.88538 -0.200303,0.19099 -0.433079,0.28668 -0.697928,0.28668 -0.268924,0 -0.471091,-0.0979 -0.606224,-0.29319 -0.130705,-0.1948 -0.159545,-0.48816 -0.08708,-0.87887 l 1.278755,-6.8952 c 0.04595,-0.24777 0.119582,-0.44842 0.220846,-0.60236 0.101741,-0.15742 0.235293,-0.27047 0.400706,-0.33936 0.169752,-0.0726 0.374784,-0.10891 0.615231,-0.10891 h 4.007447 c 0.270979,0 0.462517,0.0611 0.574766,0.18355 0.116824,0.1188 0.161394,0.27626 0.133493,0.47263 -0.02853,0.20081 -0.118932,0.36343 -0.271349,0.4876 -0.148281,0.1205 -0.359341,0.18083 -0.632982,0.18083 z m 7.036612,4.25881 c -0.0474,0.50707 -0.16742,0.97792 -0.36074,1.41177 -0.19452,0.43652 -0.45285,0.81374 -0.77516,1.1307 -0.32374,0.31836 -0.698175,0.56456 -1.122973,0.73784 -0.425344,0.16934 -0.893055,0.25416 -1.402381,0.25416 -0.505252,0 -0.94885,-0.087 -1.330102,-0.26068 -0.380335,-0.17325 -0.697381,-0.41942 -0.950977,-0.73776 -0.247855,-0.3212 -0.41855,-0.69624 -0.512495,-1.12426 -0.08879,-0.42966 -0.09712,-0.90053 -0.02576,-1.41177 0.07142,-0.51167 0.211322,-0.97675 0.419167,-1.39614 0.206598,-0.41687 0.468355,-0.77106 0.785191,-1.06351 0.3155,-0.29121 0.679309,-0.51378 1.091729,-0.66835 0.411979,-0.15818 0.854255,-0.23713 1.32754,-0.23713 0.481043,0 0.908799,0.0789 1.28391,0.23713 0.37599,0.15854 0.68948,0.3851 0.94063,0.68034 0.25224,0.29652 0.43149,0.65079 0.53742,1.0637 0.11051,0.41538 0.14243,0.8764 0.095,1.38396 z m -1.63356,0 c 0.0723,-0.68823 -0.0177,-1.21933 -0.268393,-1.59679 -0.245448,-0.37543 -0.610312,-0.56239 -1.095586,-0.56239 -0.313081,0 -0.599178,0.0844 -0.858764,0.25342 -0.25972,0.16542 -0.475218,0.41226 -0.646637,0.7414 -0.172231,0.3307 -0.287041,0.7185 -0.344086,1.16436 -0.05688,0.44453 -0.0429,0.83528 0.0425,1.17135 0.08983,0.33766 0.244219,0.59834 0.463277,0.78117 0.224174,0.17903 0.502007,0.26872 0.833078,0.26872 0.500644,0 0.920216,-0.19844 1.257307,-0.59367 0.339683,-0.39725 0.545152,-0.9409 0.617302,-1.62757 z m 4.4577,1.00732 -0.10569,1.45148 c -0.026,0.35677 -0.12483,0.6266 -0.29679,0.80849 -0.17207,0.17801 -0.3805,0.26718 -0.62497,0.26718 -0.24041,0 -0.43056,-0.0913 -0.5702,-0.27368 -0.13929,-0.18188 -0.19387,-0.44953 -0.16412,-0.80199 l 0.39889,-4.72629 c 0.0619,-0.7337 0.35062,-1.09764 0.86657,-1.09764 0.2638,0 0.44749,0.0849 0.55126,0.25495 0.10402,0.17049 0.14973,0.42304 0.13686,0.75855 0.21559,-0.33551 0.4283,-0.58806 0.63851,-0.75855 0.21358,-0.17007 0.48699,-0.25495 0.82062,-0.25495 0.33362,0 0.6526,0.0849 0.9575,0.25495 0.30566,0.17049 0.45134,0.39715 0.43645,0.68052 -0.0105,0.20026 -0.0878,0.36692 -0.23206,0.49973 -0.14039,0.12903 -0.28919,0.19363 -0.44621,0.19363 -0.0589,0 -0.20004,-0.0363 -0.42326,-0.10899 -0.21883,-0.0766 -0.41438,-0.11485 -0.58683,-0.11485 -0.23514,0 -0.43154,0.0645 -0.58942,0.19355 -0.15788,0.12529 -0.28706,0.31365 -0.38761,0.56559 -0.10092,0.25284 -0.18006,0.55584 -0.23735,0.90963 -0.0573,0.35144 -0.10467,0.78384 -0.14216,1.29869 z m 9.21795,-0.88297 -0.0177,2.29588 c -0.003,0.36949 -0.0842,0.64787 -0.24434,0.83406 -0.16055,0.18666 -0.37137,0.28018 -0.63215,0.28018 -0.25263,0 -0.45681,-0.0935 -0.61225,-0.28018 -0.15098,-0.18619 -0.22268,-0.46457 -0.21543,-0.83406 l 0.0538,-2.74252 c 0.008,-0.42333 9.2e-4,-0.75037 -0.0221,-0.98245 -0.0229,-0.23131 -0.0937,-0.41944 -0.21228,-0.56474 -0.11823,-0.14902 -0.30842,-0.22342 -0.57075,-0.22342 -0.52466,0 -0.87709,0.18512 -1.05803,0.55685 -0.17797,0.37373 -0.27963,0.91347 -0.30446,1.62307 l -0.0817,2.33321 c -0.0128,0.36519 -0.10171,0.64355 -0.26708,0.83406 -0.16158,0.18666 -0.37087,0.28018 -0.62757,0.28018 -0.25263,0 -0.45631,-0.0935 -0.61074,-0.28018 -0.14976,-0.19051 -0.21589,-0.46887 -0.19876,-0.83406 l 0.22757,-4.84989 c 0.0144,-0.30727 0.0934,-0.5398 0.23678,-0.69834 0.14693,-0.15818 0.33277,-0.23713 0.55777,-0.23713 0.21725,0 0.39475,0.075 0.53273,0.22525 0.14232,0.14662 0.20888,0.35121 0.19944,0.6143 l -0.006,0.15594 c 0.28894,-0.33941 0.59307,-0.58791 0.91291,-0.74648 0.31909,-0.15821 0.6704,-0.23718 1.0545,-0.23718 0.39961,0 0.74164,0.081 1.02659,0.24312 0.28563,0.16255 0.52041,0.4091 0.7045,0.74054 0.27202,-0.33542 0.56173,-0.58196 0.86958,-0.74054 0.30713,-0.16217 0.64665,-0.24312 1.0191,-0.24312 0.43453,0 0.80983,0.0869 1.12652,0.26093 0.31749,0.17452 0.55717,0.42516 0.71901,0.75276 0.14241,0.29698 0.22008,0.76711 0.23264,1.41393 l 0.065,3.34591 c 0.007,0.36949 -0.0666,0.64787 -0.22172,0.83406 -0.15548,0.18666 -0.36377,0.28018 -0.62454,0.28018 -0.25263,0 -0.46139,-0.0935 -0.62596,-0.28018 -0.16011,-0.19051 -0.24137,-0.46887 -0.24407,-0.83406 l -0.0214,-2.89078 c -0.003,-0.36106 -0.0206,-0.64899 -0.0536,-0.86467 -0.029,-0.21501 -0.1088,-0.39502 -0.23911,-0.54031 -0.13006,-0.14499 -0.32615,-0.21737 -0.58848,-0.21737 -0.21143,0 -0.41319,0.0643 -0.60555,0.19319 -0.1888,0.12908 -0.33695,0.30292 -0.44445,0.52184 -0.12011,0.28074 -0.18311,0.77992 -0.18867,1.50222 z m 9.65625,2.41168 c -0.38165,0.33127 -0.75737,0.58181 -1.12646,0.75078 -0.3661,0.16501 -0.78376,0.24766 -1.25234,0.24766 -0.42783,0 -0.80807,-0.0892 -1.14009,-0.26718 -0.32729,-0.18189 -0.58268,-0.42586 -0.7662,-0.73126 -0.18274,-0.30411 -0.2788,-0.63245 -0.28872,-0.9847 -0.0133,-0.47256 0.11719,-0.87302 0.39048,-1.20259 0.27202,-0.32803 0.65172,-0.54725 1.13947,-0.65867 0.10212,-0.0247 0.35553,-0.0804 0.7599,-0.16678 0.40387,-0.0863 0.74831,-0.16434 1.03347,-0.23407 0.28862,-0.0738 0.59981,-0.16175 0.93345,-0.26392 -0.0457,-0.4397 -0.15096,-0.75958 -0.31559,-0.96128 -0.16049,-0.20512 -0.47718,-0.30745 -0.95043,-0.30745 -0.40675,0 -0.71114,0.0582 -0.9134,0.17465 -0.19869,0.11669 -0.36784,0.2921 -0.50756,0.52665 -0.13626,0.23536 -0.2346,0.39203 -0.29475,0.46948 -0.0564,0.0734 -0.18532,0.1102 -0.38662,0.1102 -0.18157,0 -0.3414,-0.0592 -0.4793,-0.17747 -0.13384,-0.12213 -0.2035,-0.27651 -0.20914,-0.46294 -0.009,-0.29081 0.0825,-0.57237 0.27321,-0.8448 0.18999,-0.27135 0.49182,-0.49401 0.90526,-0.66846 0.41239,-0.17401 0.93045,-0.26085 1.55498,-0.26085 0.69823,0 1.25218,0.0849 1.66261,0.25491 0.41119,0.1665 0.71128,0.43293 0.90028,0.80047 0.19393,0.3695 0.31299,0.86256 0.35668,1.48179 0.0278,0.39394 0.0496,0.73013 0.0652,1.00772 0.0196,0.27869 0.0396,0.58988 0.06,0.93399 0.0229,0.32465 0.0972,0.66565 0.22342,1.02324 0.13057,0.3551 0.19985,0.58493 0.20735,0.68827 0.0132,0.1812 -0.056,0.34771 -0.20782,0.49942 -0.14835,0.14768 -0.32451,0.22163 -0.52824,0.22163 -0.17113,0 -0.34573,-0.0848 -0.52347,-0.25416 -0.17758,-0.17328 -0.36951,-0.42163 -0.57541,-0.74428 z m -0.25714,-2.49875 c -0.23329,0.0912 -0.57602,0.18878 -1.02845,0.29273 -0.44932,0.0999 -0.7608,0.17498 -0.93406,0.22505 -0.17356,0.0459 -0.33721,0.13995 -0.49107,0.28233 -0.15434,0.13843 -0.22661,0.33396 -0.21654,0.58705 0.0105,0.26249 0.11408,0.48765 0.31126,0.67511 0.19752,0.18368 0.45006,0.2757 0.75723,0.2757 0.32739,0 0.62466,-0.0749 0.89138,-0.22449 0.26996,-0.15353 0.46243,-0.34922 0.57756,-0.58672 0.13333,-0.26203 0.18215,-0.69102 0.14706,-1.28394 z m 2.77203,-3.26023 h 0.17475 l -0.0793,-0.96573 c -0.0211,-0.25679 -0.0317,-0.4565 -0.032,-0.59961 0.003,-0.14667 0.0313,-0.27185 0.084,-0.37568 0.0523,-0.10751 0.13301,-0.19377 0.24217,-0.25888 0.10872,-0.0689 0.23368,-0.10327 0.37495,-0.10327 0.19855,0 0.38477,0.0746 0.55894,0.22396 0.11633,0.0998 0.19476,0.22277 0.23523,0.36913 0.044,0.14281 0.0786,0.3479 0.10369,0.61584 l 0.10248,1.09424 h 0.58251 c 0.22523,0 0.40168,0.0554 0.5295,0.16625 0.13151,0.10709 0.20614,0.24615 0.22377,0.41739 0.0226,0.21965 -0.0476,0.37382 -0.2107,0.46207 -0.15943,0.0884 -0.39785,0.13259 -0.7151,0.13259 h -0.29964 l 0.28995,3.09609 c 0.0252,0.26955 0.0529,0.47873 0.0829,0.62701 0.0337,0.14434 0.0932,0.26343 0.17866,0.35714 0.0892,0.0896 0.22262,0.13439 0.4002,0.13439 0.0969,0 0.22634,-0.0171 0.38838,-0.0512 0.16152,-0.0384 0.28862,-0.0576 0.38138,-0.0576 0.13308,0 0.25809,0.0576 0.37515,0.17289 0.12085,0.11122 0.19026,0.25048 0.20813,0.41795 0.0303,0.28432 -0.0927,0.50263 -0.36956,0.65432 -0.27747,0.15201 -0.69146,0.22814 -1.24153,0.22814 -0.52155,0 -0.92506,-0.0935 -1.20997,-0.28018 -0.28418,-0.18619 -0.4823,-0.44302 -0.59453,-0.76975 -0.10767,-0.32524 -0.18348,-0.7573 -0.22755,-1.29424 l -0.26546,-3.23495 h -0.21151 c -0.23109,0 -0.41171,-0.0563 -0.54171,-0.1687 -0.12978,-0.11225 -0.20107,-0.2543 -0.21401,-0.42596 -0.0129,-0.17124 0.0389,-0.3103 0.15515,-0.41739 0.1197,-0.11088 0.29986,-0.16625 0.54063,-0.16625 z m 5.8218,0.78129 0.60035,4.90046 c 0.0432,0.35246 -0.003,0.62011 -0.13967,0.80199 -0.13677,0.18234 -0.32752,0.27368 -0.57199,0.27368 -0.24448,0 -0.45476,-0.0935 -0.63049,-0.28018 -0.17122,-0.18619 -0.2758,-0.45164 -0.31394,-0.79549 l -0.53825,-4.85246 c -0.0359,-0.32336 0.009,-0.56588 0.1349,-0.7284 0.12926,-0.16214 0.31016,-0.24307 0.54292,-0.24307 0.23276,0 0.43448,0.0809 0.60546,0.24307 0.17139,0.16252 0.27502,0.38911 0.31071,0.6804 z m -0.98601,-1.67097 c -0.21992,0 -0.41674,-0.0683 -0.5902,-0.20456 -0.16926,-0.13605 -0.26752,-0.32798 -0.29496,-0.57534 -0.0248,-0.22339 0.0334,-0.40579 0.17424,-0.54753 0.14393,-0.14527 0.32068,-0.21779 0.53047,-0.21779 0.20217,0 0.38921,0.0649 0.56138,0.19483 0.17249,0.13019 0.27415,0.32018 0.30482,0.57049 0.0298,0.24349 -0.0236,0.43541 -0.16067,0.57534 -0.13778,0.1363 -0.31287,0.20456 -0.52508,0.20456 z m 9.05945,4.11263 c 0.0902,0.50707 0.0979,0.97792 0.0223,1.41177 -0.0761,0.43652 -0.23208,0.81374 -0.4684,1.1307 -0.23738,0.31836 -0.54502,0.56456 -0.9228,0.73784 -0.3794,0.16934 -0.8241,0.25416 -1.33343,0.25416 -0.50525,0 -0.97244,-0.087 -1.40082,-0.26068 -0.42733,-0.17325 -0.81116,-0.41942 -1.15112,-0.73776 -0.335,-0.3212 -0.60744,-0.69624 -0.81751,-1.12426 -0.20535,-0.42966 -0.34142,-0.90053 -0.40876,-1.41177 -0.0674,-0.51167 -0.0537,-0.97675 0.0404,-1.39614 0.0935,-0.41687 0.25917,-0.77106 0.49667,-1.06351 0.23649,-0.29121 0.53992,-0.51378 0.9104,-0.66835 0.36907,-0.15818 0.78992,-0.23713 1.26321,-0.23713 0.48104,0 0.93022,0.0789 1.34824,0.23713 0.419,0.15854 0.79395,0.3851 1.1252,0.68034 0.33268,0.29652 0.60804,0.65079 0.82599,1.0637 0.22321,0.41538 0.3802,0.8764 0.47047,1.38396 z m -1.63356,0 c -0.1144,-0.68823 -0.34847,-1.21933 -0.70159,-1.59679 -0.3473,-0.37543 -0.76289,-0.56239 -1.24816,-0.56239 -0.31308,0 -0.57629,0.0844 -0.79002,0.25342 -0.21484,0.16542 -0.36337,0.41226 -0.4455,0.7414 -0.0825,0.3307 -0.0921,0.7185 -0.0282,1.16436 0.0637,0.44453 0.1837,0.83528 0.36028,1.17135 0.18143,0.33766 0.40654,0.59834 0.67521,0.78117 0.27274,0.17903 0.5749,0.26872 0.90597,0.26872 0.50065,0 0.86638,-0.19844 1.09625,-0.59367 0.23191,-0.39725 0.28989,-0.9409 0.17575,-1.62757 z m 3.90694,-2.46564 0.0391,0.19815 c 0.20577,-0.37979 0.45611,-0.65632 0.75129,-0.83081 0.2975,-0.178 0.66127,-0.26683 1.09188,-0.26683 0.41897,0 0.81358,0.0928 1.1846,0.27871 0.37202,0.18644 0.67872,0.4511 0.92025,0.79488 0.15109,0.20066 0.26904,0.41803 0.35372,0.65226 0.085,0.23502 0.16933,0.53604 0.25318,0.9039 l 0.72807,3.19418 c 0.0803,0.35246 0.0642,0.62011 -0.049,0.80199 -0.1094,0.18234 -0.28644,0.27368 -0.53092,0.27368 -0.24855,0 -0.47072,-0.0935 -0.66615,-0.28018 -0.19493,-0.18619 -0.32954,-0.45164 -0.40395,-0.79549 l -0.62053,-2.86761 c -0.11981,-0.55365 -0.28535,-0.97312 -0.49669,-1.2608 -0.2074,-0.29053 -0.53003,-0.43534 -0.96852,-0.43534 -0.28579,0 -0.52805,0.0885 -0.72715,0.26571 -0.20043,0.17367 -0.32507,0.41469 -0.3737,0.72377 -0.0294,0.24908 0.0238,0.71695 0.16083,1.40804 l 0.4294,2.16623 c 0.0707,0.35677 0.045,0.6266 -0.0777,0.80849 -0.11975,0.17801 -0.30401,0.26718 -0.55256,0.26718 -0.2404,0 -0.45573,-0.0935 -0.64561,-0.28018 -0.18938,-0.18619 -0.31609,-0.45164 -0.38026,-0.79549 l -0.91463,-4.90046 c -0.0581,-0.3112 -0.035,-0.54169 0.069,-0.69228 0.10296,-0.15421 0.2688,-0.23119 0.49768,-0.23119 0.13966,0 0.27225,0.0335 0.39786,0.10068 0.12572,0.0672 0.23487,0.16813 0.32747,0.30293 0.0967,0.13506 0.16436,0.30028 0.20299,0.49588 z"
       id="path135"
       transform="matrix(0.88161184,0,0,1.134286,-0.43212081,8.6424163)"
       aria-label="Formation" /></g></svg>
