<?xml version="1.0" encoding="UTF-8" standalone="no"?>
<!-- Created with Inkscape (http://www.inkscape.org/) -->

<svg
   width="126.23469mm"
   height="43.498276mm"
   viewBox="0 0 126.23469 43.498276"
   version="1.1"
   id="svg1"
   xmlns="http://www.w3.org/2000/svg"
   xmlns:svg="http://www.w3.org/2000/svg">
  <defs
     id="defs1" />
  <g
     id="layer1-1"
     transform="translate(-38.469042,-134.46838)">
    <path
       id="rect4-1"
       style="fill:none;fill-opacity:0.724044;stroke:#313131;stroke-width:2.17506;stroke-miterlimit:0.3;stroke-opacity:0.462963"
       d="m 50.891551,146.70419 100.494669,0.61111 c 4.64343,0.0282 7.20247,3.89054 8.3818,8.3818 l 3.36111,12.80023 c 1.17933,4.49127 -3.73828,8.3818 -8.3818,8.3818 H 48.141551 c -4.643515,0 -9.314545,-3.83293 -8.381797,-8.3818 l 2.75,-13.41134 c 0.932748,-4.54887 3.738368,-8.41004 8.381797,-8.3818 z" />
    <path
       id="rect1-3"
       style="fill:#d0d0d0;fill-opacity:0.724044;stroke:#000000;stroke-width:2.1;stroke-miterlimit:0.3"
       d="m 51.468895,146.66666 h 99.951095 c 4.81488,0 7.3723,4.06037 8.69112,8.69111 l 3.05556,10.72888 c 1.31882,4.63074 -3.87624,8.69112 -8.69112,8.69112 H 48.413339 c -4.814877,0 -10.009937,-4.06038 -8.691114,-8.69112 l 3.055556,-10.72888 c 1.318822,-4.63074 3.876237,-8.69111 8.691114,-8.69111 z" />
    <path
       id="rect2-8"
       style="fill:#e6e6e6;fill-opacity:0.724044;stroke:#000000;stroke-width:2.1;stroke-miterlimit:0.3"
       d="m 50.98435,135.51838 h 100.9202 c 5.05427,0 7.87105,4.22652 9.12324,9.12324 l 2.44444,9.55908 c 1.25218,4.8967 -4.06897,9.12323 -9.12324,9.12323 H 49.151017 c -5.054272,0 -10.075241,-4.15943 -9.123235,-9.12323 l 1.833333,-9.55908 c 0.952008,-4.96382 4.068963,-9.12324 9.123235,-9.12324 z" />
    <path
       style="fill:none;fill-opacity:1;stroke:#000000;stroke-width:1.6;stroke-miterlimit:0.3;stroke-dasharray:none;stroke-opacity:1"
       d="m 39.755114,155.34743 -0.476869,12.5871"
       id="path4-7" />
    <path
       style="fill:none;fill-opacity:1;stroke:#000000;stroke-width:1.7;stroke-miterlimit:0.3;stroke-dasharray:none;stroke-opacity:1"
       d="m 163.62083,156.72429 -0.21606,11.05746"
       id="path5-9" />
  </g>
</svg>
