<?xml version="1.0" encoding="UTF-8" standalone="no"?>
<!-- Created with Inkscape (http://www.inkscape.org/) -->

<svg
   width="99.106888mm"
   height="31.636812mm"
   viewBox="0 0 99.106888 31.636812"
   version="1.1"
   id="svg1"
   xml:space="preserve"
   xmlns="http://www.w3.org/2000/svg"
   xmlns:svg="http://www.w3.org/2000/svg"><defs
     id="defs1" /><g
     id="g40"
     transform="translate(-38.469044,-144.19095)"><path
       id="path35"
       style="fill:#9d9d9d;fill-opacity:0.724044;stroke:#000000;stroke-width:2.1;stroke-miterlimit:0.3"
       d="m 51.468895,146.66666 h 73.107175 c 4.81488,0 7.3723,4.06037 8.69112,8.69111 l 3.05556,10.72888 c 1.31883,4.63074 -3.87624,8.69112 -8.69112,8.69112 H 48.413339 c -4.814877,0 -10.009937,-4.06038 -8.691114,-8.69112 l 3.055556,-10.72888 c 1.318822,-4.63074 3.876237,-8.69111 8.691114,-8.69111 z" /><path
       id="path36"
       style="fill:#9b9b9b;fill-opacity:0.724044;stroke:#000000;stroke-width:2.1;stroke-miterlimit:0.3"
       d="m 50.98435,145.67322 73.69659,-0.43212 c 5.05418,-0.0296 7.87105,4.22652 9.12324,9.12324 l 2.44444,9.55908 c 1.25218,4.8967 -4.06905,9.09522 -9.12324,9.12323 l -77.974363,0.43212 c -5.054194,0.028 -10.075241,-4.15943 -9.123235,-9.12323 l 1.833333,-9.55908 c 0.952008,-4.96382 4.06905,-9.0936 9.123235,-9.12324 z" /><g
       style="fill:#e6e6e6;stroke-width:1.62805;stroke-dasharray:none"
       id="g39"
       transform="matrix(1.4450204,0,0,1.5405337,45.097156,140.93246)"><path
         d="m 7.360413,13.718805 9.793234,0 M 6.6803735,9.7283531 h 0.00946 m 3.7748178,0 h 0.0095 m 3.774817,0 h 0.0095 m 3.774818,0 h 0.0095 M 5.248,18 19.052,18 c 1.136902,0 1.705403,0 2.127738,-0.241346 0.370114,-0.21144 0.661098,-0.547431 0.831205,-0.95807 0.192056,-0.463466 0.156972,-1.064903 0.08785,-2.249788 L 21.772816,8.9625632 C 21.711274,7.9075579 21.680933,7.3874144 21.45667,6.9933378 21.260767,6.6489921 20.964543,6.3706092 20.610512,6.1968655 20.209383,6 19.696892,6 18.672,6 L 6.228,6 C 5.2030994,6 4.6906536,6 4.2796627,6.1968655 3.9169174,6.3706092 3.6068114,6.6489921 3.3936537,6.9933378 3.1496968,7.3874144 3.0933489,7.9075485 2.9790556,8.9625632 L 2.3736637,14.550796 c -0.1283624,1.184885 -0.1935182,1.786322 -0.024646,2.249788 0.1496159,0.410639 0.4237591,0.74663 0.7833321,0.95807 C 3.5426376,18 4.1110985,18 5.248,18 Z"
         stroke="#000000"
         stroke-width="2"
         stroke-linecap="round"
         stroke-linejoin="round"
         id="path39"
         style="fill:#e6e6e6;fill-opacity:1;stroke-width:1.62805;stroke-dasharray:none" /></g><path
       style="font-size:14.1111px;font-family:'Arial Rounded MT Bold';-inkscape-font-specification:'Arial Rounded MT Bold, ';stroke:#d5d5d5;stroke-width:0.405;stroke-miterlimit:0.3"
       d="m 91.24254,145.05026 c -0.01357,0.33227 -0.10772,0.69513 -0.283245,1.08912 -0.171909,0.39174 -0.436269,0.78117 -0.793947,1.16821 -0.359723,0.38459 -0.81248,0.69949 -1.358188,0.9436 -0.5479,0.24509 -1.177765,0.36801 -1.887944,0.36801 -0.538436,0 -1.023531,-0.0552 -1.4547,-0.1655 -0.430392,-0.11009 -0.815061,-0.27984 -1.153632,-0.50874 -0.332201,-0.233 -0.628226,-0.53653 -0.887822,-0.90954 -0.229678,-0.33666 -0.415133,-0.71016 -0.556599,-1.11978 -0.13997,-0.4116 -0.23095,-0.84644 -0.273414,-1.30396 -0.03766,-0.45401 -0.02729,-0.93231 0.03053,-1.43427 0.09285,-0.80602 0.286552,-1.51843 0.57967,-2.14046 0.294306,-0.61536 0.670703,-1.13542 1.128952,-1.56269 0.455247,-0.42833 0.967631,-0.75171 1.538052,-0.9719 0.568192,-0.21934 1.161383,-0.32868 1.781239,-0.32868 0.755713,0 1.419278,0.14935 1.992985,0.44925 0.576786,0.30151 1.013891,0.67746 1.310761,1.12934 0.299436,0.45114 0.441681,0.88175 0.424856,1.29131 -0.0093,0.22585 -0.09616,0.42586 -0.261005,0.59977 -0.165338,0.17443 -0.360066,0.26184 -0.583807,0.26184 -0.250064,0 -0.43557,-0.0605 -0.556326,-0.1814 -0.116129,-0.12063 -0.242522,-0.32777 -0.378838,-0.62052 -0.224474,-0.48022 -0.499791,-0.83667 -0.826344,-1.07163 -0.320903,-0.23399 -0.728267,-0.35062 -1.223083,-0.35062 -0.787402,0 -1.442005,0.30071 -1.967981,0.90695 -0.527249,0.61272 -0.849211,1.4947 -0.963328,2.65826 -0.07751,0.79033 -0.03507,1.45714 0.129217,1.99604 0.166241,0.53905 0.437607,0.94534 0.814239,1.21612 0.378335,0.272 0.838085,0.40847 1.377963,0.40847 0.585631,0 1.090033,-0.15351 1.511595,-0.45935 0.424263,-0.3091 0.754739,-0.75783 0.991311,-1.34304 0.100771,-0.27398 0.21846,-0.49506 0.353125,-0.66385 0.134526,-0.17297 0.34027,-0.25927 0.617526,-0.25927 0.23701,0 0.436645,0.0863 0.599261,0.25927 0.163093,0.17348 0.23953,0.38987 0.228918,0.64964 z m 1.614016,2.3311 0.218023,-8.15165 c 0.0094,-0.34996 0.09312,-0.61313 0.250954,-0.79071 0.161582,-0.17702 0.373796,-0.26532 0.637022,-0.26532 0.263226,0 0.474197,0.0883 0.633288,0.26532 0.159645,0.17334 0.237675,0.43649 0.233702,0.79071 l -0.09144,8.15165 c -0.0046,0.40982 -0.09821,0.72025 -0.281284,0.92976 -0.178994,0.20521 -0.410288,0.30808 -0.693432,0.30808 -0.278501,0 -0.503441,-0.10788 -0.674367,-0.32307 -0.165705,-0.21443 -0.243032,-0.51981 -0.232468,-0.91477 z m 8.584604,0.0887 c -0.43986,0.38067 -0.87209,0.66898 -1.29563,0.86361 -0.420391,0.19024 -0.897978,0.28559 -1.431773,0.28559 -0.487378,0 -0.918163,-0.10287 -1.291413,-0.30808 -0.367417,-0.20951 -0.65092,-0.49021 -0.850584,-0.84112 -0.198516,-0.34889 -0.297643,-0.725 -0.298234,-1.12782 -7.91e-4,-0.5393 0.158914,-0.99534 0.477601,-1.36996 0.316689,-0.37229 0.751438,-0.62074 1.304845,-0.7469 0.115861,-0.028 0.403173,-0.0909 0.861409,-0.18876 0.457477,-0.0976 0.847576,-0.18582 1.170539,-0.26462 0.32683,-0.0833 0.67925,-0.18269 1.05706,-0.29802 -0.0434,-0.49563 -0.15597,-0.85553 -0.33734,-1.08218 -0.17642,-0.23026 -0.53011,-0.34506 -1.061594,-0.34506 -0.456815,0 -0.800019,0.0653 -1.03,0.19596 -0.226096,0.13101 -0.420591,0.32808 -0.583656,0.59187 -0.159373,0.265 -0.274175,0.44157 -0.34394,0.5289 -0.06549,0.0829 -0.211665,0.12434 -0.438467,0.12434 -0.204567,0 -0.382947,-0.0668 -0.53488,-0.20019 -0.147176,-0.13765 -0.221081,-0.31156 -0.221974,-0.52138 -0.0014,-0.32692 0.109345,-0.643 0.331323,-0.9484 0.220811,-0.3038 0.565391,-0.55279 1.033418,-0.74768 0.466443,-0.19422 1.048797,-0.29109 1.748242,-0.29109 0.781988,0 1.400858,0.0947 1.857728,0.28446 0.45817,0.18599 0.79059,0.48394 0.99727,0.89559 0.21256,0.41459 0.33958,0.96898 0.38028,1.66714 0.0259,0.44527 0.0459,0.82594 0.0596,1.14073 0.0184,0.31647 0.0367,0.67036 0.055,1.06232 0.0215,0.37041 0.10129,0.76012 0.2398,1.16949 0.14376,0.40723 0.21962,0.67118 0.22688,0.78997 0.0127,0.20843 -0.0681,0.40012 -0.2428,0.5749 -0.17089,0.17027 -0.37255,0.25559 -0.60464,0.25559 -0.19495,0 -0.39253,-0.0979 -0.59226,-0.29309 -0.19932,-0.19959 -0.41352,-0.48536 -0.64202,-0.85611 z m -0.24689,-2.85127 c -0.26518,0.10347 -0.65425,0.21419 -1.16763,0.33222 -0.510026,0.11352 -0.863872,0.1988 -1.060946,0.25572 -0.197368,0.0522 -0.384738,0.15921 -0.562339,0.32121 -0.17817,0.15768 -0.264978,0.38056 -0.260053,0.66938 0.0051,0.29991 0.116925,0.55748 0.335997,0.77215 0.219747,0.21053 0.50437,0.31607 0.853295,0.31607 0.371881,0 0.711116,-0.0859 1.017056,-0.25739 0.30946,-0.17587 0.53158,-0.39985 0.66659,-0.67139 0.15589,-0.29922 0.21891,-0.78824 0.18989,-1.46243 z m 4.40574,-2.69334 1.86459,4.32979 1.13681,-4.51126 c 0.0846,-0.3479 0.17782,-0.59195 0.27975,-0.73348 0.10117,-0.14558 0.27114,-0.21823 0.51011,-0.21823 0.22593,0 0.42633,0.0771 0.60154,0.23149 0.18005,0.15484 0.28283,0.33454 0.30805,0.53932 0.01,0.0803 0.006,0.17419 -0.0113,0.28164 -0.0131,0.10766 -0.0337,0.20877 -0.0617,0.3033 -0.0236,0.0947 -0.0523,0.20308 -0.086,0.32527 l -1.24634,4.59156 c -0.0359,0.13722 -0.0842,0.31165 -0.14475,0.5236 -0.0562,0.2127 -0.12723,0.39632 -0.21308,0.55059 -0.0819,0.14966 -0.19284,0.26715 -0.33268,0.3523 -0.1354,0.0853 -0.30761,0.12792 -0.51649,0.12792 -0.26922,0 -0.49098,-0.0653 -0.66499,-0.19554 -0.16947,-0.13502 -0.30012,-0.2797 -0.39207,-0.43399 -0.0875,-0.15884 -0.24058,-0.4679 -0.45808,-0.92488 l -2.09894,-4.54397 c -0.0471,-0.10871 -0.0963,-0.21723 -0.14767,-0.32554 -0.0468,-0.10811 -0.0894,-0.21826 -0.12757,-0.33045 -0.0337,-0.11197 -0.0532,-0.20808 -0.0585,-0.28843 -0.008,-0.12477 0.0207,-0.24704 0.0869,-0.36684 0.0657,-0.12398 0.16125,-0.22341 0.28657,-0.29841 0.12485,-0.0793 0.26325,-0.11894 0.41532,-0.11894 0.29545,0 0.50418,0.0859 0.62646,0.258 0.12701,0.17265 0.27487,0.46377 0.4442,0.87518 z m 7.8172,-0.10089 0.83251,5.55686 c 0.0607,0.40487 0.0167,0.71279 -0.13266,0.92227 -0.14985,0.2102 -0.36421,0.31557 -0.64272,0.31557 -0.2785,0 -0.52081,-0.10788 -0.72639,-0.32307 -0.20024,-0.21443 -0.32674,-0.51981 -0.37978,-0.91477 l -0.73899,-5.50308 c -0.0486,-0.36207 -0.004,-0.63325 0.13229,-0.81481 0.14056,-0.18098 0.34101,-0.27126 0.6017,-0.27126 0.2607,0 0.48896,0.0903 0.68526,0.27126 0.19691,0.18156 0.31993,0.43492 0.36878,0.76103 z m -1.15277,-1.86446 c -0.24586,0 -0.46768,-0.0758 -0.66509,-0.22722 -0.19257,-0.15097 -0.30714,-0.3638 -0.34393,-0.6378 -0.0332,-0.24718 0.0271,-0.4488 0.18055,-0.60534 0.15666,-0.16033 0.35166,-0.24033 0.58532,-0.24033 0.22517,0 0.43529,0.0716 0.63074,0.21498 0.19595,0.14378 0.31477,0.35376 0.35626,0.63069 0.0404,0.26971 -0.0137,0.48253 -0.16272,0.6378 -0.15008,0.15138 -0.34389,0.22722 -0.58113,0.22722 z m 8.693,5.09023 h -3.60959 c 0.0836,0.44184 0.23773,0.83416 0.46286,1.17594 0.23106,0.34374 0.50036,0.60406 0.80757,0.77986 0.31269,0.17632 0.63694,0.26468 0.97206,0.26468 0.22493,0 0.42387,-0.027 0.5967,-0.081 0.17628,-0.0589 0.33957,-0.14699 0.4898,-0.2643 0.14893,-0.12198 0.28234,-0.25101 0.40028,-0.38704 0.11767,-0.13572 0.26816,-0.31943 0.45115,-0.55068 0.0769,-0.0865 0.20384,-0.12968 0.38079,-0.12968 0.19055,0 0.35687,0.0552 0.49917,0.16575 0.14256,0.11077 0.23635,0.26763 0.28131,0.47096 0.0397,0.17968 0.0202,0.39162 -0.0588,0.63616 -0.0804,0.24061 -0.23186,0.47477 -0.45464,0.7024 -0.22005,0.22351 -0.5205,0.41039 -0.90145,0.56031 -0.37725,0.15029 -0.83312,0.22558 -1.36691,0.22558 -1.22077,0 -2.23638,-0.3755 -3.03943,-1.11962 -0.79332,-0.73511 -1.28724,-1.71826 -1.48587,-2.93721 -0.0921,-0.56534 -0.0966,-1.08384 -0.0145,-1.55666 0.0807,-0.47355 0.24451,-0.87577 0.49099,-1.20809 0.24507,-0.33041 0.57217,-0.58141 0.98145,-0.75404 0.40723,-0.17652 0.87756,-0.26457 1.41191,-0.26457 0.69511,0 1.32094,0.14977 1.87969,0.4505 0.56511,0.29784 1.02544,0.6869 1.381,1.16902 0.35853,0.48615 0.59549,0.98559 0.70938,1.49861 0.10658,0.48008 0.0438,0.79447 -0.18931,0.9405 -0.23474,0.14166 -0.59341,0.21263 -1.07559,0.21263 z m -3.80459,-1.09043 h 3.31527 c -0.17832,-0.647 -0.4452,-1.12533 -0.80065,-1.43902 -0.35004,-0.31652 -0.75935,-0.47414 -1.22934,-0.47414 -0.44803,0 -0.78729,0.15987 -1.01873,0.48094 -0.22913,0.31829 -0.31843,0.79441 -0.26655,1.43222 z m 8.88014,1.76161 0.4158,1.65991 c 0.10266,0.40982 0.0903,0.72025 -0.038,0.92976 -0.12992,0.20521 -0.3343,0.30808 -0.6128,0.30808 -0.27386,0 -0.52413,-0.10537 -0.7502,-0.31557 -0.2253,-0.20948 -0.38547,-0.5174 -0.4806,-0.92227 l -1.25982,-5.36165 c -0.19297,-0.82124 5.1e-4,-1.2275 0.57838,-1.2275 0.29545,0 0.53174,0.0947 0.70929,0.28453 0.17814,0.19047 0.32071,0.4729 0.42776,0.84865 0.12037,-0.37575 0.26739,-0.65818 0.4412,-0.84865 0.17758,-0.18985 0.45298,-0.28453 0.82664,-0.28453 0.37366,0 0.76202,0.0947 1.16607,0.28453 0.4054,0.19047 0.65247,0.44392 0.74056,0.7612 0.0623,0.22448 0.0372,0.41147 -0.0757,0.56059 -0.11003,0.14496 -0.25342,0.21758 -0.42999,0.21758 -0.0662,0 -0.23833,-0.0409 -0.51607,-0.12249 -0.27415,-0.086 -0.50797,-0.12901 -0.70177,-0.12901 -0.26427,0 -0.46146,0.0724 -0.5918,0.21745 -0.13183,0.14088 -0.20846,0.35283 -0.22972,0.63664 -0.0214,0.28518 1.3e-4,0.6274 0.0649,1.02762 0.064,0.39826 0.16905,0.88921 0.31583,1.47513 z"
       id="path40"
       aria-label="Clavier"
       transform="matrix(1.0471254,0,0,0.97883672,-4.3467191,13.371748)" /></g></svg>
