<?xml version="1.0" encoding="UTF-8" standalone="no"?>
<!-- Created with Inkscape (http://www.inkscape.org/) -->

<svg
   width="99.106888mm"
   height="31.402767mm"
   viewBox="0 0 99.106888 31.402767"
   version="1.1"
   id="svg1"
   xml:space="preserve"
   xmlns="http://www.w3.org/2000/svg"
   xmlns:svg="http://www.w3.org/2000/svg"><defs
     id="defs1" /><g
     id="g62"
     transform="translate(-38.469033,-144.42499)"><path
       id="path54"
       style="fill:#c96fb7;fill-opacity:0.724044;stroke:#000000;stroke-width:2.1;stroke-miterlimit:0.3"
       d="m 51.468895,146.66666 h 73.107175 c 4.81488,0 7.3723,4.06037 8.69112,8.69111 l 3.05556,10.72888 c 1.31883,4.63074 -3.87624,8.69112 -8.69112,8.69112 H 48.413339 c -4.814877,0 -10.009937,-4.06038 -8.691114,-8.69112 l 3.055556,-10.72888 c 1.318822,-4.63074 3.876237,-8.69111 8.691114,-8.69111 z" /><path
       id="path55"
       style="fill:#c96fb7;fill-opacity:0.724044;stroke:#000000;stroke-width:2.1;stroke-miterlimit:0.3"
       d="m 50.678794,145.90727 73.696586,-0.43212 c 5.05418,-0.0296 7.87105,4.22652 9.12324,9.12324 l 2.44444,9.55908 c 1.25218,4.8967 -4.06905,9.09522 -9.12324,9.12323 l -77.974359,0.43212 c -5.054194,0.028 -10.075241,-4.15943 -9.123235,-9.12323 l 1.833333,-9.55908 c 0.952008,-4.96382 4.06905,-9.0936 9.123235,-9.12324 z" /><g
       style="fill:#ffffff;fill-opacity:1;stroke:#000000;stroke-width:14.0917;stroke-dasharray:none;stroke-opacity:1"
       id="g61"
       transform="matrix(0.10895202,0,0,0.11995327,48.517852,140.8445)"><g
         id="g60"
         style="fill:#ffffff;fill-opacity:1;stroke:#000000;stroke-width:14.0917;stroke-dasharray:none;stroke-opacity:1">
	<path
   id="path58"
   d="m 30.2,160.8 c 15.8,0 28.7,-12.8 28.7,-28.7 0,-15.8 -12.8,-28.6 -28.7,-28.6 -15.8,0 -28.6,12.8 -28.6,28.6 0,15.9 12.9,28.7 28.6,28.7 z"
   style="fill:#ffffff;fill-opacity:1;stroke:#000000;stroke-width:14.0917;stroke-dasharray:none;stroke-opacity:1" />
	<path
   id="path59"
   d="m 190.8,210.1 c 1.3,-0.9 3.1,-0.6 4.1,0.6 l 5.3,7.3 c 0.9,1.3 0.6,3.1 -0.6,4.1 l -38.9,28.2 c -1.3,0.9 -3.1,0.6 -4.1,-0.6 l -5.3,-7.3 c -0.9,-1.3 -0.6,-3.1 0.6,-4.1 z"
   style="fill:#ffffff;fill-opacity:1;stroke:#000000;stroke-width:14.0917;stroke-dasharray:none;stroke-opacity:1" />
	<polygon
   id="polygon59"
   points="146.9,173.6 131.4,146.6 123.3,152.5 138.8,179.7 "
   style="fill:#ffffff;fill-opacity:1;stroke:#000000;stroke-width:14.0917;stroke-dasharray:none;stroke-opacity:1"
   transform="matrix(0.73618437,0,0,0.73785437,41.175539,49.853815)" />
	<polygon
   id="polygon60"
   points="110.9,110.5 50.9,5.1 39.4,5.2 102.7,116.4 "
   style="fill:#ffffff;fill-opacity:1;stroke:#000000;stroke-width:14.0917;stroke-dasharray:none;stroke-opacity:1"
   transform="matrix(0.73618437,0,0,0.73785437,41.175539,49.853815)" />
	<path
   id="path60"
   d="m 167.4,166.2 c 3.4,-2.5 7.3,-4.4 11.7,-4.4 l 55.7,0.1 c 10.8,0 19.6,8.8 19.6,19.6 0,10.8 -8.7,19.6 -19.6,19.6 L 188.3,201 128.9,242.9 C 108,258 95.3,241.4 95.3,241.4 L 48.7,194.8 c -7.8,-9.4 -6.1,-27.2 3.2,-35.1 l 64.5,-45.9 c 6.4,-5.4 15.9,-4.5 21.3,1.8 5.4,6.4 4.5,16 -1.9,21.3 l -41.3,30.2 29.7,29.3 z"
   style="fill:#ffffff;fill-opacity:1;stroke:#000000;stroke-width:14.0917;stroke-dasharray:none;stroke-opacity:1" />
</g></g><path
       d="m 86.549661,140.25171 h -4.438095 l -0.366355,2.37881 h 4.176854 c 0.307387,0 0.527905,0.0698 0.661808,0.20978 0.139272,0.13575 0.196809,0.31729 0.17228,0.54505 -0.02463,0.2287 -0.120287,0.41695 -0.287222,0.56432 -0.166863,0.14313 -0.408585,0.21483 -0.724843,0.21483 h -4.235121 l -0.45782,2.9727 h 4.884482 c 0.329397,0 0.56788,0.0806 0.715762,0.24204 0.15353,0.15701 0.216802,0.36867 0.189405,0.63558 -0.0265,0.2582 -0.133951,0.4701 -0.322659,0.63516 -0.183936,0.16051 -0.443317,0.24093 -0.77776,0.24093 H 79.9569 c -0.463442,0 -0.779738,-0.10804 -0.948416,-0.32353 -0.163299,-0.21468 -0.203663,-0.55999 -0.122051,-1.03359 l 1.30707,-7.58507 c 0.04714,-0.27358 0.126975,-0.49484 0.239404,-0.66442 0.112793,-0.17326 0.262906,-0.29758 0.450414,-0.37329 0.192299,-0.0798 0.425762,-0.11965 0.700605,-0.11965 h 5.130398 c 0.309744,0 0.531549,0.0671 0.665672,0.20168 0.139282,0.13066 0.197822,0.30396 0.175294,0.52032 -0.02306,0.2215 -0.118916,0.40109 -0.287807,0.53832 -0.16444,0.13327 -0.403816,0.20003 -0.717822,0.20003 z m 4.025155,1.99518 -0.0164,0.22178 c 0.355158,-0.42484 0.729043,-0.73357 1.122657,-0.92812 0.396946,-0.19826 0.842595,-0.29712 1.33803,-0.29712 0.482046,0 0.908246,0.10326 1.279661,0.31036 0.372833,0.2079 0.647523,0.5034 0.823928,0.88794 0.114804,0.22482 0.186481,0.46866 0.214776,0.73177 0.02843,0.26437 0.03655,0.60351 0.02419,1.01878 l -0.108452,3.64447 c -0.01209,0.40642 -0.111808,0.71563 -0.299589,0.92604 -0.183682,0.21118 -0.41934,0.31705 -0.706471,0.31705 -0.291918,0 -0.524181,-0.10839 -0.696309,-0.32458 -0.17149,-0.21538 -0.247724,-0.52203 -0.229276,-0.91851 l 0.152389,-3.27505 c 0.02912,-0.62587 -0.03542,-1.0987 -0.192676,-1.4223 -0.151589,-0.32622 -0.480238,-0.48861 -0.986617,-0.48861 -0.33005,0 -0.637039,0.0992 -0.921738,0.29809 -0.285417,0.19508 -0.504364,0.46615 -0.6568,0.81434 -0.111719,0.28105 -0.196085,0.81013 -0.25327,1.59433 l -0.180787,2.4792 c -0.03,0.4114 -0.145634,0.72313 -0.347287,0.93357 -0.197218,0.20617 -0.442049,0.30952 -0.733966,0.30952 -0.282346,0 -0.505138,-0.10839 -0.667921,-0.32458 -0.16218,-0.21538 -0.225159,-0.52203 -0.189573,-0.91851 l 0.499312,-5.56302 c 0.03122,-0.34782 0.130479,-0.60503 0.297543,-0.77289 0.16693,-0.17174 0.381867,-0.25741 0.645207,-0.25741 0.160681,0 0.302788,0.0373 0.426449,0.11205 0.12383,0.0748 0.218144,0.18727 0.282947,0.33755 0.06947,0.1507 0.09622,0.33521 0.08004,0.55386 z m 6.546094,-0.8452 h 0.435814 l 0.0056,-0.53883 c 0.0057,-0.55509 0.08076,-0.99122 0.224455,-1.31123 0.147255,-0.32233 0.389289,-0.55438 0.726085,-0.69733 0.340244,-0.14675 0.804052,-0.21997 1.392129,-0.21997 1.041109,0 1.568119,0.24517 1.581099,0.73893 0.004,0.16135 -0.0471,0.29974 -0.15422,0.41499 -0.10735,0.11549 -0.23609,0.17332 -0.38605,0.17332 -0.0706,0 -0.19212,-0.0128 -0.36457,-0.0385 -0.17237,-0.0257 -0.31802,-0.0385 -0.43703,-0.0385 -0.326154,0 -0.534695,0.0943 -0.625862,0.28326 -0.09152,0.18536 -0.136254,0.45374 -0.133962,0.80639 l 0.0028,0.42757 h 0.449224 c 0.697311,0 1.050161,0.20731 1.058601,0.62432 0.006,0.29918 -0.0849,0.48982 -0.27314,0.57075 -0.18399,0.0811 -0.44121,0.12163 -0.771463,0.12163 h -0.454665 l 0.03327,5.11836 c 0.0026,0.40146 -0.08827,0.71064 -0.273172,0.92605 -0.18082,0.21117 -0.417435,0.31705 -0.709352,0.31705 -0.277561,0 -0.508983,-0.10588 -0.693761,-0.31705 -0.179297,-0.21541 -0.266612,-0.52459 -0.262463,-0.92605 l 0.05289,-5.11836 h -0.508951 c -0.275966,0 -0.487415,-0.0608 -0.634103,-0.18234 -0.146266,-0.12572 -0.217029,-0.28693 -0.212553,-0.48332 0.0099,-0.43489 0.321025,-0.65104 0.9334,-0.65104 z m 9.62186,6.52402 c -0.44389,0.38216 -0.88232,0.6717 -1.31417,0.8672 -0.4288,0.19113 -0.9189,0.28693 -1.46923,0.28693 -0.50248,0 -0.94899,-0.10335 -1.33849,-0.30952 -0.38351,-0.21044 -0.68207,-0.49232 -0.89574,-0.84461 -0.21236,-0.35014 -0.32288,-0.72748 -0.33248,-1.13146 -0.0129,-0.54063 0.14138,-0.99759 0.46101,-1.37283 0.31751,-0.37275 0.75922,-0.62144 1.32574,-0.74771 0.11856,-0.028 0.41271,-0.091 0.88186,-0.18888 0.46834,-0.0977 0.86755,-0.18592 1.1979,-0.26476 0.33418,-0.0833 0.69427,-0.18272 1.08006,-0.29806 -0.0569,-0.49556 -0.18145,-0.85526 -0.37338,-1.08171 -0.18695,-0.23003 -0.55329,-0.34469 -1.09959,-0.34469 -0.46955,0 -0.82078,0.0652 -1.05412,0.19573 -0.22937,0.13088 -0.42474,0.32778 -0.58629,0.5914 -0.15776,0.26489 -0.27176,0.44143 -0.3415,0.52875 -0.0654,0.0829 -0.21485,0.12434 -0.44813,0.12434 -0.21041,0 -0.39539,-0.0668 -0.55466,-0.20018 -0.15445,-0.13764 -0.23436,-0.31149 -0.23997,-0.5212 -0.009,-0.32668 0.098,-0.64243 0.31929,-0.94743 0.22006,-0.30332 0.56848,-0.55185 1.04489,-0.74633 0.47472,-0.19379 1.0707,-0.29043 1.78922,-0.29043 0.80332,0 1.44138,0.0944 1.91542,0.28381 0.47536,0.18561 0.82439,0.483 1.04715,0.89402 0.22897,0.41412 0.37362,0.96813 0.43321,1.66622 0.038,0.44545 0.0682,0.82642 0.0904,1.14156 0.027,0.31692 0.0549,0.67141 0.0837,1.06418 0.0316,0.3713 0.12374,0.76209 0.27692,1.17273 0.15859,0.40866 0.24356,0.67362 0.2541,0.79288 0.0185,0.20929 -0.0598,0.40181 -0.23546,0.57739 -0.1718,0.17107 -0.37752,0.25679 -0.6168,0.25679 -0.201,0 -0.40717,-0.0983 -0.61798,-0.29446 -0.21047,-0.20048 -0.43838,-0.48747 -0.68307,-0.85967 z m -0.32469,-2.85822 c -0.27035,0.10359 -0.66807,0.21445 -1.19359,0.33263 -0.52224,0.1137 -0.88443,0.19911 -1.08595,0.25613 -0.20193,0.0523 -0.39231,0.15948 -0.57136,0.3218 -0.17977,0.15799 -0.26397,0.38136 -0.2522,0.67089 0.0122,0.30072 0.13338,0.55906 0.36407,0.77442 0.23132,0.21123 0.52706,0.31715 0.88658,0.31715 0.38317,0 0.73063,-0.0862 1.04168,-0.25828 0.31452,-0.17645 0.53785,-0.40111 0.67023,-0.67343 0.15319,-0.29999 0.20602,-0.7901 0.15953,-1.46543 z m 5.1641,-2.8206 0.0261,0.22178 c 0.27371,-0.42484 0.58841,-0.73357 0.94473,-0.92812 0.35893,-0.19826 0.78563,-0.29712 1.28107,-0.29712 0.48205,0 0.92804,0.10326 1.33916,0.31036 0.41269,0.2079 0.74403,0.5034 0.99415,0.88794 0.1579,0.22482 0.27633,0.46866 0.35506,0.73177 0.0791,0.26437 0.15223,0.60351 0.21949,1.01878 l 0.59022,3.64447 c 0.0658,0.40642 0.0254,0.71563 -0.12205,0.92604 -0.1432,0.21118 -0.35857,0.31705 -0.6457,0.31705 -0.29191,0 -0.54496,-0.10839 -0.75853,-0.32458 -0.21278,-0.21538 -0.34781,-0.52203 -0.40537,-0.91851 l -0.47546,-3.27505 c -0.0909,-0.62587 -0.24604,-1.0987 -0.46534,-1.4223 -0.21413,-0.32622 -0.57391,-0.48861 -1.08029,-0.48861 -0.33005,0 -0.61803,0.0992 -0.86459,0.29809 -0.24802,0.19508 -0.415,0.46615 -0.50068,0.81434 -0.0578,0.28105 -0.0408,0.81013 0.0524,1.59433 l 0.29449,2.4792 c 0.0489,0.4114 -0.007,0.72313 -0.1683,0.93357 -0.1577,0.20617 -0.38272,0.30952 -0.67463,0.30952 -0.28235,0 -0.52592,-0.10839 -0.73015,-0.32458 -0.20347,-0.21538 -0.32524,-0.52203 -0.36566,-0.91851 l -0.56717,-5.56302 c -0.0355,-0.34782 0.0145,-0.60503 0.14938,-0.77289 0.134,-0.17174 0.33252,-0.25741 0.59586,-0.25741 0.16068,0 0.30994,0.0373 0.44793,0.11205 0.13817,0.0748 0.25404,0.18727 0.34766,0.33755 0.0984,0.1507 0.16047,0.33521 0.18622,0.55386 z m 6.63214,-0.8452 h 0.20114 l -0.19462,-1.07234 c -0.0516,-0.28412 -0.085,-0.50477 -0.10047,-0.66274 -0.0118,-0.16175 0.007,-0.29971 0.0562,-0.41405 0.0484,-0.11831 0.13154,-0.21319 0.24943,-0.28477 0.11694,-0.0757 0.2561,-0.11349 0.41762,-0.11349 0.22698,0 0.44804,0.0819 0.66366,0.24619 0.14412,0.10978 0.24751,0.24522 0.31012,0.40649 0.0663,0.1575 0.12882,0.38392 0.18757,0.68012 l 0.24089,1.21459 h 0.67049 c 0.25925,0 0.4688,0.0617 0.62891,0.18522 0.16401,0.11941 0.26636,0.27458 0.30687,0.46582 0.052,0.2456 -0.0107,0.41818 -0.18864,0.51704 -0.17374,0.099 -0.44395,0.14862 -0.8104,0.14862 h -0.34609 l 0.69496,3.50401 c 0.0611,0.30813 0.118,0.5476 0.17053,0.71753 0.0564,0.16556 0.14013,0.30227 0.25113,0.40991 0.11496,0.10294 0.27638,0.15448 0.48409,0.15448 0.1133,0 0.26267,-0.0196 0.44803,-0.0589 0.1842,-0.0441 0.33047,-0.0662 0.43893,-0.0662 0.15562,0 0.30893,0.0662 0.4602,0.19879 0.15527,0.12797 0.25395,0.28835 0.2959,0.4814 0.0713,0.32817 -0.0455,0.58053 -0.35139,0.75608 -0.30683,0.17609 -0.78361,0.26434 -1.42966,0.26434 -0.61255,0 -1.09743,-0.1084 -1.45364,-0.32458 -0.35489,-0.21538 -0.61657,-0.51209 -0.78519,-0.88888 -0.16281,-0.37435 -0.30007,-0.87051 -0.41166,-1.48532 l -0.66477,-3.66268 h -0.24429 c -0.26691,0 -0.48154,-0.0631 -0.64359,-0.18908 -0.16168,-0.1257 -0.25892,-0.28466 -0.29189,-0.47658 -0.0329,-0.19124 0.0122,-0.34641 0.13488,-0.46582 0.12613,-0.12355 0.32764,-0.18522 0.60478,-0.18522 z m 12.05245,5.03719 c 0.15193,0.54726 0.15376,1.02126 0.004,1.4201 -0.15257,0.39663 -0.45809,0.7009 -0.91702,0.91134 -0.45713,0.20617 -1.05479,0.30952 -1.79176,0.30952 -0.70347,0 -1.33331,-0.11343 -1.88791,-0.33963 -0.55244,-0.22532 -0.98435,-0.5045 -1.29598,-0.83675 -0.31093,-0.33526 -0.50232,-0.66859 -0.5752,-0.99999 -0.048,-0.21825 -0.014,-0.40431 0.10148,-0.5585 0.11522,-0.15378 0.28697,-0.23051 0.51549,-0.23051 0.20054,0 0.36602,0.0503 0.49661,0.15117 0.13083,0.101 0.26676,0.24318 0.40795,0.42686 0.28032,0.35452 0.57861,0.62063 0.89428,0.7971 0.32137,0.177 0.72134,0.26571 1.19918,0.26571 0.38795,0 0.68224,-0.0887 0.8824,-0.26571 0.20299,-0.18136 0.27428,-0.38653 0.21453,-0.61526 -0.0911,-0.34863 -0.28555,-0.60149 -0.58324,-0.75987 -0.29221,-0.15792 -0.7469,-0.30826 -1.36351,-0.45108 -0.695,-0.16616 -1.26922,-0.33892 -1.72309,-0.51822 -0.4489,-0.18342 -0.82838,-0.42239 -1.1383,-0.71617 -0.30831,-0.29225 -0.50861,-0.64968 -0.60158,-1.07102 -0.0823,-0.37286 -0.0488,-0.72295 0.0994,-1.05068 0.14732,-0.32579 0.412,-0.58326 0.79369,-0.77336 0.38379,-0.19384 0.87645,-0.2905 1.47901,-0.2905 0.47311,0 0.90946,0.0483 1.30956,0.14506 0.40529,0.0969 0.75516,0.22714 1.04973,0.39093 0.29994,0.16427 0.54265,0.34688 0.72796,0.54801 0.19049,0.20188 0.31259,0.39998 0.3659,0.59428 0.0585,0.21316 0.0338,0.38838 -0.0745,0.5253 -0.10396,0.13726 -0.28835,0.20602 -0.55297,0.20602 -0.19162,0 -0.37038,-0.055 -0.53601,-0.16488 -0.16077,-0.10965 -0.35587,-0.27371 -0.58487,-0.4917 -0.18713,-0.18101 -0.3893,-0.32539 -0.60665,-0.43342 -0.21692,-0.10783 -0.48762,-0.16167 -0.81241,-0.16167 -0.33381,0 -0.59392,0.0718 -0.78069,0.21566 -0.18833,0.13972 -0.25757,0.31601 -0.20721,0.5292 0.0462,0.19578 0.16655,0.35794 0.36115,0.48617 0.19395,0.12393 0.44047,0.22742 0.73956,0.31036 0.29954,0.0831 0.70953,0.18473 1.23047,0.30513 0.61995,0.14391 1.14082,0.31615 1.56253,0.51699 0.42786,0.20157 0.77507,0.44157 1.04146,0.72051 0.27105,0.27555 0.45686,0.59316 0.5569,0.9535 z"
       id="path61"
       style="font-size:14.1111px;font-family:'Arial Rounded MT Bold';-inkscape-font-specification:'Arial Rounded MT Bold, ';stroke:#ffffff;stroke-width:0.315;stroke-miterlimit:0.3"
       aria-label="Enfants"
       transform="translate(-0.30555556,10.388889)" /></g></svg>
