<?xml version="1.0" encoding="UTF-8" standalone="no"?>
<!-- Created with Inkscape (http://www.inkscape.org/) -->

<svg
   width="126.23469mm"
   height="31.5816mm"
   viewBox="0 0 126.23469 31.5816"
   version="1.1"
   id="svg1"
   xmlns="http://www.w3.org/2000/svg"
   xmlns:svg="http://www.w3.org/2000/svg">
  <defs
     id="defs1" />
  <g
     id="g18"
     transform="translate(-38.469046,-144.24617)">
    <path
       id="path14"
       style="fill:#db7e7e;fill-opacity:0.724044;stroke:#000000;stroke-width:2.1;stroke-miterlimit:0.3"
       d="m 51.468895,146.66666 h 99.951095 c 4.81488,0 7.3723,4.06037 8.69112,8.69111 l 3.05556,10.72888 c 1.31882,4.63074 -3.87624,8.69112 -8.69112,8.69112 H 48.413339 c -4.814877,0 -10.009937,-4.06038 -8.691114,-8.69112 l 3.055556,-10.72888 c 1.318822,-4.63074 3.876237,-8.69111 8.691114,-8.69111 z" />
    <path
       id="path15"
       style="fill:#df8b93;fill-opacity:0.724044;stroke:#000000;stroke-width:2.1;stroke-miterlimit:0.3"
       d="m 50.98435,145.29616 h 100.9202 c 5.05427,0 7.87105,4.22652 9.12324,9.12324 l 2.44444,9.55908 c 1.25218,4.8967 -4.06897,9.12323 -9.12324,9.12323 H 49.151017 c -5.054272,0 -10.075241,-4.15943 -9.123235,-9.12323 l 1.833333,-9.55908 c 0.952008,-4.96382 4.068963,-9.12324 9.123235,-9.12324 z" />
    <path
       d="m 63.216073,155.62769 c 0.454573,0.34969 0.958745,0.6924 1.512675,1.02806 0.556629,0.32856 0.919277,0.59365 1.087031,0.79485 0.169191,0.19347 0.227752,0.47211 0.175369,0.8365 -0.03734,0.25977 -0.193665,0.52009 -0.469338,0.78096 -0.268311,0.26142 -0.569575,0.39234 -0.903368,0.39234 -0.270212,0 -0.586437,-0.09 -0.94828,-0.26987 -0.353388,-0.17958 -0.764916,-0.44033 -1.233996,-0.78173 -0.459885,-0.34047 -0.960632,-0.73649 -1.501702,-1.18755 -1.243107,0.59639 -2.700845,0.89566 -4.368697,0.89566 -1.351672,0 -2.523,-0.21846 -3.511364,-0.65422 -0.975402,-0.44226 -1.739996,-1.07075 -2.293643,-1.88261 -0.548341,-0.81439 -0.886567,-1.77202 -1.016524,-2.86948 -0.121093,-1.0876 -0.04428,-2.26055 0.227461,-3.51622 0.273747,-1.26493 0.703291,-2.41333 1.286942,-3.4484 0.58603,-1.02601 1.295272,-1.89219 2.127738,-2.60197 0.827412,-0.70548 1.764089,-1.24062 2.811291,-1.60776 1.045233,-0.37301 2.184562,-0.55906 3.420517,-0.55906 1.677369,0 3.060528,0.32666 4.154126,0.98278 1.108373,0.65275 1.882154,1.59217 2.320093,2.82522 0.443693,1.23885 0.541851,2.71323 0.288212,4.43177 -0.391979,2.65587 -1.443388,4.80238 -3.164543,6.41073 z m -2.413729,-1.91342 c 0.573137,-0.55344 1.032685,-1.20496 1.378985,-1.95297 0.351841,-0.74339 0.605767,-1.59985 0.762448,-2.56692 0.195286,-1.20536 0.16666,-2.23994 -0.08302,-3.10805 -0.247849,-0.86175 -0.697197,-1.50756 -1.347589,-1.94093 -0.639287,-0.43894 -1.422849,-0.6578 -2.352485,-0.6578 -0.661901,0 -1.298351,0.12194 -1.910311,0.36619 -0.6044,0.23756 -1.157187,0.58758 -1.658923,1.05107 -0.496233,0.46533 -0.938086,1.06426 -1.325887,1.7988 -0.381172,0.73172 -0.665964,1.56129 -0.853695,2.49072 -0.387628,1.91907 -0.234683,3.41941 0.468145,4.48473 0.710562,1.06688 1.771446,1.60384 3.17796,1.60384 0.578234,0 1.193827,-0.1226 1.845799,-0.36744 -0.318083,-0.27584 -0.728864,-0.55106 -1.23203,-0.82566 -0.494264,-0.27398 -0.828233,-0.48491 -1.00258,-0.63312 -0.174133,-0.14804 -0.235768,-0.3581 -0.185149,-0.62985 0.0433,-0.23245 0.177993,-0.43741 0.4039,-0.61501 0.225576,-0.17735 0.453849,-0.26592 0.685069,-0.26592 0.701369,0 1.774292,0.58657 3.22936,1.76832 z m 8.306132,-3.03206 1.054859,-7.79524 c 0.08662,-0.6401 0.298914,-1.11787 0.636546,-1.43528 0.344067,-0.31655 0.758525,-0.4745 1.244079,-0.4745 0.507624,0 0.888937,0.15795 1.144463,0.4745 0.26361,0.31741 0.357094,0.79518 0.279586,1.43528 l -0.966056,7.97823 c -0.114093,0.94224 -0.105992,1.73697 0.0255,2.38121 0.140891,0.63985 0.462717,1.14161 0.966038,1.50352 0.505711,0.35509 1.251399,0.53302 2.235959,0.53302 1.35963,0 2.35572,-0.3635 2.98546,-1.08726 0.626731,-0.72727 1.004597,-1.81781 1.135223,-3.26179 l 0.727937,-8.04693 c 0.05855,-0.6472 0.249402,-1.12493 0.572161,-1.43528 0.322505,-0.31655 0.729882,-0.4745 1.222793,-0.4745 0.492911,0 0.877618,0.15795 1.15469,0.4745 0.28576,0.31035 0.404365,0.78808 0.355031,1.43528 l -0.59421,7.79524 c -0.10044,1.31764 -0.316743,2.42808 -0.649919,3.32539 -0.32785,0.90397 -0.884079,1.70345 -1.670179,2.39632 -0.679199,0.59243 -1.44981,1.02655 -2.310805,1.30067 -0.86291,0.27473 -1.856305,0.41232 -2.978746,0.41232 -1.335863,0 -2.469254,-0.14568 -3.398529,-0.43653 -0.926105,-0.29822 -1.653192,-0.75223 -2.180974,-1.36029 -0.524143,-0.61301 -0.863649,-1.3888 -1.019575,-2.32424 -0.153691,-0.93608 -0.143382,-2.0422 0.02867,-3.31364 z m 17.692975,5.25539 0.786531,-13.05063 c 0.03858,-0.6401 0.218706,-1.11787 0.539882,-1.43528 0.320295,-0.31655 0.719211,-0.4745 1.197409,-0.4745 0.492911,0 0.882387,0.15795 1.169017,0.4745 0.295131,0.31035 0.42816,0.78808 0.398368,1.43528 l -0.600767,13.05063 c -0.03343,0.72616 -0.223922,1.2716 -0.5721,1.63389 -0.341304,0.36335 -0.777135,0.54542 -1.306737,0.54542 -0.505889,0 -0.914457,-0.18207 -1.225018,-0.54542 -0.301295,-0.37033 -0.429867,-0.91574 -0.386585,-1.63389 z m 18.393069,-12.08381 h -3.62011 l -2.9e-4,12.08381 c -2e-5,0.73416 -0.16149,1.28366 -0.48512,1.64598 -0.32456,0.3553 -0.74408,0.53333 -1.257874,0.53333 -0.521698,0 -0.946557,-0.18207 -1.273853,-0.54542 -0.318459,-0.36229 -0.472156,-0.90773 -0.461837,-1.63389 l 0.171714,-12.08381 -3.620114,0 c -0.566108,0 -0.982936,-0.1186 -1.250075,-0.35543 -0.266337,-0.24351 -0.392045,-0.56146 -0.377578,-0.95322 0.01494,-0.40462 0.166994,-0.72306 0.45576,-0.95602 0.295553,-0.23249 0.71194,-0.34857 1.249606,-0.34857 l 10.429261,0 c 0.56712,0 0.98931,0.1196 1.26699,0.35915 0.28565,0.24006 0.43313,0.555 0.44203,0.94544 0.009,0.39176 -0.12499,0.70971 -0.40222,0.95322 -0.27794,0.23683 -0.70017,0.35543 -1.26629,0.35543 z m 14.30169,0 h -3.62011 l 0.741,12.08381 c 0.045,0.73416 -0.0827,1.28366 -0.38414,1.64598 -0.30277,0.3553 -0.71137,0.53333 -1.22516,0.53333 -0.5217,0 -0.95773,-0.18207 -1.30732,-0.54542 -0.34068,-0.36229 -0.52784,-0.90773 -0.56207,-1.63389 l -0.56958,-12.08381 -3.62011,0 c -0.56611,0 -0.99021,-0.1186 -1.27188,-0.35543 -0.28127,-0.24351 -0.42649,-0.56146 -0.43605,-0.95322 -0.01,-0.40462 0.12263,-0.72306 0.3971,-0.95602 0.2813,-0.23249 0.69056,-0.34857 1.22823,-0.34857 l 10.42926,0 c 0.56713,0 0.99665,0.1196 1.28903,0.35915 0.30037,0.24006 0.46716,0.555 0.50001,0.94544 0.033,0.39176 -0.0814,0.70971 -0.34372,0.95322 -0.26342,0.23683 -0.67838,0.35543 -1.24449,0.35543 z m 14.43415,-0.17247 h -7.46933 l 0.42116,3.94327 h 6.99401 c 0.51471,0 0.91309,0.11516 1.19556,0.34582 0.28954,0.22364 0.46121,0.52248 0.5147,0.89709 0.0537,0.3758 -0.0281,0.68484 -0.2458,0.9266 -0.21918,0.23467 -0.59285,0.35217 -1.12069,0.35217 l -7.06845,0 0.51696,4.84027 h 8.10106 c 0.54632,0 0.97481,0.13033 1.28597,0.39141 0.31849,0.25371 0.50949,0.59545 0.57266,1.02597 0.061,0.416 -0.0307,0.75706 -0.27562,1.02252 -0.23877,0.25797 -0.63467,0.38716 -1.1873,0.38716 l -9.55669,0 c -0.76579,0 -1.33508,-0.17356 -1.70709,-0.51996 -0.36309,-0.34543 -0.57979,-0.9017 -0.65054,-1.66595 l -1.15264,-12.45152 c -0.0423,-0.45668 -0.006,-0.82642 0.10791,-1.11003 0.11315,-0.28998 0.31115,-0.49817 0.59397,-0.62502 0.28917,-0.13375 0.66565,-0.20057 1.12966,-0.20057 h 8.66159 c 0.52293,0 0.92569,0.11256 1.20867,0.338 0.28989,0.21881 0.46132,0.50884 0.51399,0.87063 0.0539,0.37005 -0.0324,0.66981 -0.25938,0.89871 -0.22098,0.22218 -0.59587,0.33343 -1.12434,0.33343 z m 10.11858,6.76113 h -1.19485 l 0.94614,5.49515 c 0.12778,0.74216 0.0609,1.29169 -0.20168,1.64598 -0.26338,0.3553 -0.6562,0.53333 -1.1779,0.53333 -0.56122,0 -1.02594,-0.18612 -1.39334,-0.55752 -0.3663,-0.37029 -0.60536,-0.91164 -0.71753,-1.62179 l -2.01556,-12.76143 c -0.10809,-0.68435 -0.0271,-1.17728 0.24205,-1.48121 0.26842,-0.30314 0.75589,-0.45441 1.46296,-0.45441 h 5.33616 c 0.73653,0 1.37245,0.0316 1.908,0.095 0.53442,0.0563 1.03034,0.17603 1.4881,0.35944 0.55148,0.20489 1.06325,0.49872 1.53575,0.88218 0.47407,0.38474 0.86681,0.83521 1.17809,1.35218 0.31858,0.51205 0.54082,1.05902 0.66612,1.64139 0.25884,1.20296 0.11536,2.17276 -0.43497,2.90348 -0.54611,0.73524 -1.50633,1.25942 -2.8808,1.56974 0.66777,0.31871 1.34131,0.79076 2.02195,1.41793 0.68422,0.63046 1.31907,1.30686 1.90448,2.02995 0.59503,0.71958 1.07782,1.37637 1.44706,1.96933 0.37715,0.58789 0.59061,0.9947 0.63907,1.21863 0.0503,0.23235 0.0259,0.46513 -0.0735,0.69836 -0.0934,0.22561 -0.25255,0.40316 -0.47759,0.53245 -0.22358,0.13752 -0.50145,0.20633 -0.83343,0.20633 -0.39523,0 -0.74729,-0.0971 -1.05582,-0.29119 -0.3064,-0.18568 -0.58752,-0.42344 -0.84325,-0.71295 -0.24727,-0.28884 -0.59193,-0.71284 -1.03291,-1.27061 l -1.85131,-2.33866 c -0.65893,-0.84713 -1.22519,-1.48824 -1.70092,-1.92655 -0.46633,-0.43673 -0.91323,-0.73464 -1.34155,-0.89474 -0.42775,-0.15989 -0.94395,-0.23976 -1.54904,-0.23976 z m 0.68826,-6.82574 h -3.05834 l 0.76115,4.42074 h 3.0254 c 0.81132,0 1.48092,-0.067 2.00836,-0.20103 0.52538,-0.14126 0.89938,-0.37509 1.12201,-0.70093 0.22809,-0.33232 0.28431,-0.78499 0.16957,-1.3566 -0.0894,-0.44512 -0.28344,-0.83411 -0.58187,-1.16754 -0.29902,-0.33971 -0.66957,-0.59204 -1.11184,-0.75756 -0.41793,-0.1581 -1.19593,-0.23708 -2.33444,-0.23708 z"
       id="path18"
       style="font-size:23.2802px;font-family:'Arial Rounded MT Bold';-inkscape-font-specification:'Arial Rounded MT Bold, ';fill:#c75959;stroke:#eceffe;stroke-width:1.537;stroke-miterlimit:0.3"
       transform="matrix(1.0031869,0,0,0.99682327,0,9.7777778)"
       aria-label="QUITTER" />
  </g>
</svg>
