<?xml version="1.0" encoding="UTF-8" standalone="no"?>
<!-- Created with Inkscape (http://www.inkscape.org/) -->

<svg
   width="124.05545mm"
   height="31.439417mm"
   viewBox="0 0 124.05545 31.439417"
   version="1.1"
   id="svg1"
   xmlns="http://www.w3.org/2000/svg"
   xmlns:svg="http://www.w3.org/2000/svg">
  <defs
     id="defs1" />
  <g
     id="layer3"
     transform="matrix(0.98273663,0,0,1.0005983,-38.54636,-43.466933)">
    <path
       id="rect1-4"
       style="fill:#b7c4eb;fill-opacity:0.724044;stroke:#000000;stroke-width:2.1;stroke-miterlimit:0.3"
       d="m 52.223339,45.700444 h 99.951091 c 4.81488,0 7.3723,4.06037 8.69112,8.69111 l 3.05556,10.72888 c 1.31882,4.63074 -3.87624,8.69112 -8.69112,8.69112 H 49.167783 c -4.814877,0 -10.009937,-4.06038 -8.691114,-8.69112 l 3.055556,-10.72888 c 1.318822,-4.63074 3.876237,-8.69111 8.691114,-8.69111 z" />
    <path
       id="rect2-2"
       style="fill:#b7c4eb;fill-opacity:0.724044;stroke:#000000;stroke-width:2.1;stroke-miterlimit:0.3"
       d="M 51.738794,44.490942 H 152.65899 c 5.05427,0 7.87105,4.22652 9.12324,9.12324 l 2.44444,9.55908 c 1.25218,4.8967 -4.06897,9.12323 -9.12324,9.12323 H 49.905461 c -5.054272,0 -10.075241,-4.15943 -9.123235,-9.12323 l 1.833333,-9.55908 c 0.952008,-4.96382 4.068963,-9.12324 9.123235,-9.12324 z" />
    <path
       d="m 69.255739,148.27033 -7.449797,0 -0.628904,3.95795 6.983551,0 c 0.513941,0 0.881318,0.11572 1.102476,0.34753 0.230107,0.22478 0.322656,0.52519 0.277187,0.90185 -0.04562,0.37793 -0.208938,0.68879 -0.490287,0.932 -0.281015,0.23611 -0.685458,0.35436 -1.212887,0.35436 h -7.06296 l -0.775012,4.87746 8.105951,0 c 0.546644,0 0.940902,0.13152 1.183188,0.39501 0.251611,0.25608 0.352364,0.60109 0.301697,1.03582 -0.04897,0.42017 -0.231031,0.76471 -0.546594,1.03293 -0.307415,0.2607 -0.738089,0.39127 -1.291507,0.39127 l -9.570168,0 c -0.766878,0 -1.290404,-0.17541 -1.569947,-0.52545 -0.270828,-0.34899 -0.338471,-0.91085 -0.20421,-1.68249 l 2.179227,-12.52462 c 0.07963,-0.45768 0.214187,-0.82813 0.40354,-1.11224 0.190079,-0.29045 0.442906,-0.49895 0.758584,-0.62596 0.323842,-0.13392 0.716852,-0.20082 1.17933,-0.20082 l 8.632939,0 c 0.521206,0 0.893004,0.11269 1.115739,0.33843 0.231397,0.21913 0.325982,0.50963 0.283299,0.87206 -0.04367,0.3708 -0.20863,0.67121 -0.495224,0.90065 -0.278907,0.22273 -0.68212,0.33426 -1.209211,0.33426 z m 16.430183,8.95897 c -0.04994,1.0422 -0.364123,1.98677 -0.945387,2.83118 -0.577696,0.85063 -1.401214,1.52107 -2.470709,2.00815 -1.073989,0.48913 -2.329107,0.73447 -3.761967,0.73447 -1.717849,0 -3.104401,-0.33516 -4.155126,-1.00262 -0.740882,-0.47787 -1.317522,-1.11066 -1.73009,-1.89581 -0.401147,-0.78777 -0.561383,-1.54655 -0.483135,-2.27685 0.0452,-0.42191 0.226301,-0.7801 0.542795,-1.07514 0.324173,-0.30201 0.708922,-0.45271 1.154894,-0.45271 0.361391,0 0.653818,0.1159 0.877625,0.34807 0.231972,0.23266 0.415195,0.57863 0.549718,1.03897 0.165831,0.54858 0.356315,1.00906 0.571376,1.38036 0.223554,0.37251 0.554933,0.68254 0.994299,0.92957 0.440981,0.23955 1.037495,0.35952 1.788854,0.35952 1.033118,0 1.887591,-0.24381 2.561281,-0.72987 0.679152,-0.49194 1.040432,-1.09997 1.0858,-1.82225 0.0358,-0.56988 -0.108772,-1.02839 -0.432824,-1.37687 -0.314866,-0.35512 -0.738081,-0.62457 -1.269734,-0.80896 -0.523127,-0.1841 -1.228212,-0.37938 -2.114676,-0.58578 -1.183872,-0.28222 -2.166175,-0.60933 -2.94719,-0.98093 -0.770102,-0.37791 -1.361279,-0.88608 -1.773705,-1.52274 -0.401768,-0.64046 -0.552183,-1.42852 -0.453601,-2.361 0.09316,-0.88116 0.420328,-1.65812 0.979475,-2.33303 0.555713,-0.67076 1.309972,-1.18176 2.262999,-1.53521 0.950554,-0.35934 2.044204,-0.53856 3.283312,-0.53856 0.98982,0 1.835733,0.11945 2.538904,0.35874 0.712522,0.23276 1.296595,0.54743 1.752317,0.94471 0.457786,0.39161 0.786521,0.80611 0.985563,1.24375 0.199842,0.4394 0.289321,0.8697 0.267774,1.29077 -0.01976,0.3862 -0.179974,0.73713 -0.481227,1.05245 -0.294205,0.30886 -0.651992,0.46361 -1.072745,0.46361 -0.383187,0 -0.670602,-0.0921 -0.862007,-0.2762 -0.18313,-0.19108 -0.37721,-0.49907 -0.581888,-0.92299 -0.259031,-0.60381 -0.585142,-1.07076 -0.978501,-1.40256 -0.391659,-0.33799 -1.046339,-0.50659 -1.964944,-0.50659 -0.851932,0 -1.55658,0.18296 -2.115345,0.54981 -0.552548,0.36085 -0.853115,0.79907 -0.9005,1.31559 -0.02948,0.32131 0.0349,0.59956 0.193437,0.83441 0.158877,0.23537 0.388673,0.43803 0.689481,0.60782 0.301269,0.17005 0.609888,0.30331 0.925718,0.39965 0.316104,0.0964 0.84009,0.23751 1.572669,0.42342 0.920535,0.21604 1.750588,0.45492 2.490119,0.71678 0.74885,0.26248 1.378544,0.58203 1.889046,0.95914 0.519842,0.37839 0.914083,0.86079 1.182453,1.44852 0.277823,0.58311 0.396724,1.30464 0.355392,2.16721 z m 9.525761,-1.52254 h -3.131745 l -0.09793,4.89466 c -0.01435,0.71715 -0.190867,1.26402 -0.530305,1.63818 -0.340531,0.37536 -0.764531,0.5635 -1.271178,0.5635 -0.530396,0 -0.952057,-0.18405 -1.264244,-0.55129 -0.310927,-0.3742 -0.45351,-0.91708 -0.428612,-1.62628 l 0.451531,-12.86158 c 0.02458,-0.70004 0.207771,-1.19733 0.549,-1.49462 0.340298,-0.29647 0.869804,-0.4444 1.589216,-0.4444 h 4.195343 c 1.240618,0 2.195302,0.0916 2.8649,0.27489 0.663303,0.17658 1.237146,0.47034 1.722093,0.88223 0.494181,0.41346 0.873471,0.92173 1.137551,1.52612 0.26553,0.60775 0.40717,1.2955 0.42389,2.06474 0.0361,1.65911 -0.46072,2.93494 -1.496769,3.81392 -1.044278,0.87824 -2.617232,1.31993 -4.712738,1.31993 z m -0.755174,-7.5012 h -2.226485 l -0.09893,4.94434 h 2.276756 c 0.796865,0 1.461193,-0.0827 1.992396,-0.24801 0.537995,-0.16503 0.946168,-0.43456 1.224415,-0.80784 0.277319,-0.37203 0.413703,-0.85751 0.409863,-1.45496 -0.0046,-0.71123 -0.220896,-1.28712 -0.647706,-1.72975 -0.477149,-0.46969 -1.45341,-0.70378 -2.930312,-0.70378 z m 19.006991,12.27544 -0.975,-2.19376 h -6.9404 l -0.73565,2.24191 c -0.29122,0.88645 -0.54678,1.49069 -0.76545,1.80826 -0.21953,0.31025 -0.59075,0.46569 -1.11323,0.46569 -0.44332,0 -0.83912,-0.1677 -1.18665,-0.50238 -0.34654,-0.33373 -0.52362,-0.71107 -0.53197,-1.13159 -0.005,-0.24191 0.0295,-0.49137 0.10268,-0.74831 0.0731,-0.25636 0.19464,-0.61192 0.36438,-1.06576 l 3.94277,-10.81441 c 0.10662,-0.29551 0.23276,-0.64764 0.37824,-1.05583 0.152,-0.4138 0.31397,-0.75506 0.48602,-1.02447 0.17896,-0.26874 0.41508,-0.48396 0.70835,-0.64598 0.29981,-0.16881 0.67317,-0.25311 1.12042,-0.25311 0.45459,0 0.83707,0.0843 1.14782,0.25311 0.31815,0.16202 0.57735,0.37371 0.7776,0.63536 0.2081,0.26229 0.38488,0.54656 0.53025,0.85297 0.15271,0.30012 0.3461,0.70516 0.58066,1.21629 l 5.20105,10.74074 c 0.42676,0.86073 0.65887,1.4904 0.694,1.88519 0.0367,0.41233 -0.099,0.79362 -0.40772,1.14357 -0.30248,0.34282 -0.69155,0.51461 -1.16653,0.51461 -0.27707,0 -0.51878,-0.0532 -0.725,-0.15952 -0.2054,-0.0981 -0.38183,-0.23277 -0.52927,-0.40398 -0.14784,-0.1791 -0.31399,-0.44723 -0.49822,-0.80377 -0.17639,-0.36352 -0.32938,-0.68168 -0.45915,-0.95483 z m -7.11899,-4.79733 h 5.04252 l -2.91018,-6.77433 z m 26.92627,1.27684 c 0.0879,0.54604 0.0481,1.14187 -0.12054,1.78823 -0.163,0.64208 -0.48463,1.27976 -0.96616,1.91295 -0.4854,0.62859 -1.15254,1.14285 -2.00162,1.54125 -0.852,0.39976 -1.88469,0.60016 -3.09589,0.60016 -0.9183,0 -1.76455,-0.09 -2.53785,-0.26984 -0.7721,-0.17955 -1.487,-0.45649 -2.14402,-0.83013 -0.64791,-0.38052 -1.25896,-0.87656 -1.83245,-1.48664 -0.51014,-0.5511 -0.95798,-1.16301 -1.34364,-1.83473 -0.38417,-0.67564 -0.693,-1.39012 -0.92701,-2.14269 -0.2248,-0.74761 -0.37602,-1.5361 -0.45433,-2.36455 -0.12595,-1.33239 -0.0455,-2.51218 0.23825,-3.54395 0.28859,-1.02222 0.75284,-1.88731 1.39163,-2.59887 0.63388,-0.71407 1.40401,-1.25365 2.31117,-1.6213 0.90409,-0.3664 1.89023,-0.54914 2.9607,-0.54914 1.3051,0 2.50253,0.24959 3.59607,0.75049 1.09862,0.50322 1.98086,1.13018 2.64635,1.88301 0.66894,0.75079 1.05955,1.46664 1.1689,2.14681 0.0603,0.37479 -0.0217,0.70654 -0.24656,0.99486 -0.2254,0.28907 -0.53065,0.43388 -0.91532,0.43388 -0.42992,0 -0.7694,-0.10028 -1.0181,-0.30056 -0.24073,-0.19992 -0.52866,-0.5434 -0.86301,-1.02909 -0.55047,-0.79748 -1.14671,-1.39002 -1.78999,-1.78087 -0.63358,-0.38946 -1.37601,-0.58367 -2.22899,-0.58367 -1.35735,0 -2.38069,0.50062 -3.07476,1.50875 -0.69298,1.01745 -0.93757,2.47937 -0.72626,4.4033 0.14319,1.30374 0.44857,2.40179 0.91761,3.28794 0.47182,0.88524 1.07688,1.55171 1.81456,1.99553 0.74054,0.44554 1.57323,0.66896 2.49591,0.66896 1.00087,0 1.81077,-0.25131 2.42766,-0.7523 0.62086,-0.50673 1.03445,-1.24302 1.24151,-2.20445 0.0799,-0.45055 0.20682,-0.81435 0.38054,-1.09222 0.17214,-0.28488 0.49575,-0.42705 0.97115,-0.42705 0.40639,0 0.77769,0.14217 1.11455,0.42705 0.33771,0.2856 0.54117,0.64167 0.60994,1.06888 z m 12.33145,-8.69018 -7.4498,0 0.75061,3.95795 6.98356,0 c 0.51394,0 0.92165,0.11572 1.2236,0.34753 0.30846,0.22478 0.50571,0.52519 0.59152,0.90185 0.0861,0.37793 0.0311,0.68879 -0.16544,0.932 -0.19872,0.23611 -0.56195,0.35436 -1.08938,0.35436 h -7.06296 l 0.92499,4.87746 8.10596,0 c 0.54663,0 0.98673,0.13152 1.32086,0.39501 0.34086,0.25608 0.56186,0.60109 0.66272,1.03582 0.0975,0.42017 0.0355,0.76471 -0.18657,1.03293 -0.21655,0.2607 -0.60172,0.39127 -1.15513,0.39127 h -9.57017 c -0.76688,0 -1.35154,-0.17541 -1.75309,-0.52545 -0.39247,-0.34899 -0.65594,-0.91085 -0.79063,-1.68249 l -2.18614,-12.52462 c -0.0799,-0.45768 -0.0745,-0.82813 0.0159,-1.11224 0.0888,-0.29045 0.269,-0.49895 0.5404,-0.62596 0.27717,-0.13392 0.64687,-0.20082 1.10935,-0.20082 h 8.63293 c 0.52121,0 0.93228,0.11269 1.2337,0.33843 0.30777,0.21913 0.50361,0.50963 0.58725,0.87206 0.0856,0.3708 0.0253,0.67121 -0.18131,0.90065 -0.20128,0.22273 -0.56562,0.33426 -1.09271,0.33426 z"
       id="text3-2"
       style="font-size:23.2924px;font-family:'Arial Rounded MT Bold';-inkscape-font-specification:'Arial Rounded MT Bold, ';fill:#6d86d3;stroke:#bbf9ff;stroke-width:1.65064;stroke-miterlimit:0.3"
       transform="matrix(0.99788572,0,0,1.0021188,0.75444424,-96.370162)"
       aria-label="ESPACE" />
  </g>
</svg>
